<svg width="96" height="96" viewBox="0 0 96 96" fill="none" xmlns="http://www.w3.org/2000/svg">
<g clip-path="url(#clip0_197_6626)">
<rect width="96" height="96" fill="#D5E6FB"/>
<path fill-rule="evenodd" clip-rule="evenodd" d="M85.3333 102V92.6667C85.3333 82.3574 76.976 74 66.6666 74H29.3333C19.024 74 10.6667 82.3574 10.6667 92.6667V102" fill="#2F80ED"/>
<path d="M85.3333 102V92.6667C85.3333 82.3574 76.976 74 66.6666 74H29.3333C19.024 74 10.6667 82.3574 10.6667 92.6667V102" stroke="#2F80ED" stroke-width="2" stroke-linecap="round" stroke-linejoin="round"/>
<path fill-rule="evenodd" clip-rule="evenodd" d="M48 55.3333C58.3093 55.3333 66.6667 46.976 66.6667 36.6667C66.6667 26.3574 58.3093 18 48 18C37.6907 18 29.3333 26.3574 29.3333 36.6667C29.3333 46.976 37.6907 55.3333 48 55.3333Z" fill="#2F80ED" stroke="#2F80ED" stroke-width="2" stroke-linecap="round" stroke-linejoin="round"/>
</g>
<rect x="0.25" y="0.25" width="95.5" height="95.5" stroke="#2F80ED" stroke-width="0.5"/>
<defs>
<clipPath id="clip0_197_6626">
<rect width="96" height="96"  fill="white"/>
</clipPath>
</defs>
</svg>
