<svg width="279" height="194" viewBox="0 0 279 194" fill="none" xmlns="http://www.w3.org/2000/svg">
<path d="M95.4171 98.3942C95.4171 98.3942 89.7594 98.6959 87.6189 98.7053C85.4785 98.7147 79.9623 102.768 78.1896 102.137C76.4168 101.505 82.7817 97.7249 82.7817 97.7249C82.7817 97.7249 74.7478 98.234 72.7488 99.4971C70.7498 100.76 68.0341 102.485 67.0157 102.146C65.9974 101.807 69.1468 96.6409 73.4654 94.7838C77.7841 92.9267 91.023 89.0146 91.023 89.0146" fill="#ACCCF8"/>
<path d="M78.5855 102.655C78.3835 102.659 78.1824 102.627 77.9915 102.561C77.8279 102.516 77.6818 102.422 77.5724 102.293C77.463 102.163 77.3954 102.004 77.3786 101.835C77.2937 100.892 79.1136 99.4783 80.8486 98.3282C78.1329 98.5921 74.1726 99.1106 72.9562 99.8742C70.1274 101.637 67.9209 102.947 66.8271 102.57C66.6758 102.518 66.5455 102.418 66.4554 102.285C66.3654 102.153 66.3205 101.995 66.3273 101.835C66.2802 100.327 69.373 95.9904 73.2391 94.2936C77.5389 92.4554 90.3063 88.6375 90.8532 88.5056C90.9782 88.4706 91.1121 88.4866 91.2252 88.5503C91.3384 88.6139 91.4217 88.7199 91.4567 88.8449C91.4917 88.9699 91.4756 89.1037 91.4119 89.2168C91.3483 89.33 91.2422 89.4132 91.1172 89.4482C90.9852 89.4482 77.8595 93.3792 73.6068 95.1985C69.9011 96.7916 67.3646 100.741 67.2703 101.703C68.2132 101.703 71.042 99.9496 72.4281 99.0729C74.512 97.7626 82.3479 97.2535 82.6779 97.2347C82.7841 97.2242 82.8906 97.2515 82.9786 97.3119C83.0666 97.3723 83.1304 97.4618 83.1588 97.5646C83.1908 97.6658 83.1878 97.7748 83.1501 97.874C83.1125 97.9733 83.0424 98.0569 82.9514 98.1114C80.6034 99.5065 78.5667 101.081 78.3121 101.675C79.1702 101.891 81.3012 100.826 83.0268 99.959C84.7524 99.0918 86.4874 98.2245 87.5529 98.2151C89.6179 98.2151 95.2661 97.904 95.3227 97.904C95.3855 97.8959 95.4492 97.9014 95.5097 97.92C95.5702 97.9386 95.626 97.97 95.6733 98.0119C95.7207 98.0539 95.7585 98.1055 95.7842 98.1633C95.8099 98.2211 95.823 98.2838 95.8225 98.347C95.825 98.4089 95.8153 98.4708 95.7939 98.5289C95.7725 98.5871 95.7399 98.6404 95.6978 98.686C95.6558 98.7315 95.6052 98.7683 95.5489 98.7942C95.4926 98.8202 95.4318 98.8348 95.3699 98.8372C95.1435 98.8372 89.6462 99.1483 87.5529 99.1577C86.7137 99.1577 85.0541 99.9967 83.4511 100.807C81.5841 101.769 79.7925 102.655 78.5855 102.655Z" fill="#323F4B"/>
<path d="M213.803 51.9394C214.303 52.769 227.052 67.9649 229.267 67.6821C231.483 67.3993 225.911 61.0834 226.373 60.1407C226.835 59.198 232.03 61.0174 237.886 58.7361C243.742 56.4548 247.259 52.1374 242.883 50.0541C238.508 47.9708 229.107 52.8161 226.259 49.8467C223.412 46.8773 217.773 42.1639 217.773 42.1639" fill="#ACCCF8"/>
<path d="M229.23 68.1533C226.269 68.1533 213.502 52.3541 213.398 52.1939C213.365 52.1407 213.344 52.0817 213.334 52.0201C213.325 51.9585 213.327 51.8957 213.342 51.8352C213.357 51.7747 213.384 51.7178 213.421 51.6677C213.458 51.6176 213.505 51.5754 213.558 51.5434C213.61 51.5107 213.668 51.4887 213.728 51.4786C213.789 51.4685 213.851 51.4705 213.91 51.4845C213.97 51.4986 214.026 51.5243 214.076 51.5604C214.126 51.5964 214.168 51.6419 214.199 51.6942C215.142 53.2119 227.268 67.2106 229.164 67.2106C229.195 67.219 229.227 67.219 229.258 67.2106C229.541 66.7864 228.023 64.3826 227.372 63.3551C226.184 61.4697 225.618 60.5271 225.911 59.952C226.203 59.377 227.108 59.3676 228.739 59.443C231.775 59.729 234.836 59.3461 237.707 58.3212C241.554 56.8129 244.307 54.4563 244.307 52.6086C244.307 51.7602 243.77 51.0438 242.62 50.497C240.677 49.5544 237.528 50.1294 234.482 50.6762C230.908 51.3172 227.533 51.9299 225.863 50.186C223.035 47.2731 217.481 42.588 217.424 42.5409C217.369 42.5042 217.322 42.4561 217.286 42.4C217.251 42.3439 217.228 42.2809 217.218 42.2151C217.209 42.1494 217.214 42.0824 217.232 42.0186C217.25 41.9548 217.282 41.8955 217.325 41.8447C217.367 41.7939 217.42 41.7528 217.48 41.7239C217.54 41.695 217.605 41.6791 217.672 41.6772C217.738 41.6753 217.804 41.6874 217.865 41.7128C217.927 41.7382 217.982 41.7762 218.028 41.8245C218.084 41.8245 223.685 46.5378 226.514 49.5355C227.834 50.9118 231.116 50.3179 234.293 49.7429C237.471 49.1679 240.781 48.5834 243.006 49.6486C244.892 50.5913 245.25 51.7791 245.222 52.6369C245.137 54.8899 242.223 57.5294 237.971 59.2356C234.978 60.3126 231.784 60.7181 228.617 60.4234C227.99 60.3583 227.358 60.3583 226.731 60.4234C227.115 61.2853 227.579 62.1091 228.117 62.8837C229.607 65.231 230.474 66.7298 230.06 67.5971C229.983 67.7537 229.867 67.888 229.723 67.9871C229.58 68.0861 229.413 68.1466 229.239 68.1627L229.23 68.1533Z" fill="#323F4B"/>
<path d="M140.933 90.3439C140.933 90.3439 102.885 113.911 95.6055 121.688C88.326 129.465 69.0146 168.642 69.0146 168.642L101.725 158.273C101.725 158.273 110.061 136.591 114.559 132.679C119.056 128.767 173.2 88.7602 173.2 88.7602C173.2 88.7602 159.197 79.8331 140.933 90.3439Z" fill="#ACCCF8"/>
<path d="M69.0148 169.066C68.9485 169.067 68.8828 169.053 68.8225 169.025C68.7622 168.997 68.7088 168.957 68.6659 168.906C68.6038 168.836 68.5643 168.75 68.5525 168.657C68.5407 168.565 68.5573 168.471 68.5999 168.388C69.3826 166.795 87.9962 129.097 95.238 121.367C102.48 113.637 139.094 90.9095 140.65 89.948C158.952 79.4089 173.294 88.1946 173.436 88.2794C173.502 88.3205 173.556 88.3775 173.594 88.445C173.632 88.5125 173.652 88.5885 173.653 88.6659C173.656 88.7423 173.64 88.8182 173.607 88.8872C173.574 88.9561 173.525 89.0161 173.464 89.0619C172.927 89.4578 119.292 129.125 114.851 132.962C110.41 136.799 102.225 158.15 102.14 158.414C102.115 158.48 102.076 158.539 102.025 158.588C101.975 158.637 101.914 158.674 101.848 158.697L69.1468 169.066C69.1031 169.073 69.0585 169.073 69.0148 169.066ZM141.14 90.7492C140.452 91.1734 103.045 114.401 95.8792 122.008C89.3729 128.956 72.9469 161.666 69.8918 167.813L101.32 157.811C102.263 155.416 109.806 136.007 114.21 132.246C118.613 128.484 166.072 93.3039 172.285 88.7319C169.601 87.371 166.712 86.4572 163.733 86.0265C158.594 85.2346 150.466 85.4043 141.169 90.7492H141.14Z" fill="#323F4B"/>
<path d="M153.087 91.6918C153.087 91.6918 123.856 115.042 122.366 120.613C120.877 126.184 154.549 151.514 154.549 151.514L165.987 147.903L146.845 118.935C146.845 118.935 173.568 103.409 177.905 98.4697C182.243 93.5301 169.74 84.1505 153.087 91.6918Z" fill="#ACCCF8"/>
<path d="M154.549 151.985C154.443 151.987 154.34 151.954 154.256 151.891C150.786 149.28 120.311 126.213 121.904 120.491C123.498 114.769 151.597 92.2859 152.795 91.3432L152.889 91.2772C165.147 85.7343 175.058 89.1562 178.179 93.3699C179.565 95.2553 179.593 97.2537 178.254 98.7714C174.171 103.428 151.088 116.993 147.514 119.077L166.373 147.64C166.415 147.699 166.441 147.768 166.451 147.84C166.461 147.912 166.454 147.986 166.43 148.054C166.404 148.122 166.364 148.184 166.312 148.234C166.259 148.285 166.197 148.323 166.128 148.347L154.69 151.985C154.643 151.994 154.595 151.994 154.549 151.985ZM153.332 92.0973C143.262 100.148 123.988 116.456 122.819 120.745C121.763 124.582 141.187 140.881 154.633 150.995L165.242 147.621L146.449 119.161C146.412 119.108 146.387 119.048 146.376 118.985C146.365 118.921 146.367 118.856 146.383 118.794C146.398 118.732 146.426 118.674 146.465 118.624C146.504 118.574 146.553 118.532 146.609 118.502C146.873 118.341 173.313 102.957 177.547 98.1304C178.041 97.5302 178.3 96.7709 178.276 95.994C178.251 95.2171 177.945 94.4755 177.415 93.9073C172.615 87.4311 160.235 88.9959 153.332 92.0973Z" fill="#323F4B"/>
<path d="M131.956 35.0562C131.956 35.0562 126.402 46.8019 124.412 54.3055C122.423 61.8092 133.748 72.0655 139.103 74.1771C144.459 76.2886 150.089 83.189 150.089 83.189L138.641 91.673C138.641 91.673 143.931 88.9864 148.457 95.4437C148.457 95.4437 164.299 93.2002 172.37 103.522C172.37 103.522 194.784 92.3612 190.72 74.8181C186.656 57.275 159.009 33.2745 153.115 30.192C147.222 27.1095 131.956 35.0562 131.956 35.0562Z" fill="#D5E6FB"/>
<path d="M140.423 30.3146L143.912 37.6957C143.912 37.6957 144.535 42.2582 139.414 42.4656C137.899 42.5167 136.39 42.2283 135 41.6216C133.61 41.0148 132.374 40.1051 131.381 38.9589L127.609 25.4221C127.609 25.3561 128.212 24.4794 128.269 24.3852C128.732 23.3364 128.939 22.1926 128.872 21.0481C128.685 19.2463 128.37 17.4602 127.929 15.7032C129.515 15.4206 131.038 14.8589 132.427 14.0441C133.842 13.1014 135.454 9.11389 135.454 9.11389C136.397 11.612 143.186 13.8932 143.186 13.8932C143.186 13.8932 144.714 22.9712 145.072 25.7992C145.449 29.6547 140.423 30.3146 140.423 30.3146Z" fill="#ACCCF8"/>
<path d="M138.99 42.9086C137.478 42.9025 135.985 42.57 134.613 41.9339C133.241 41.2977 132.023 40.373 131.041 39.2228C131.004 39.1836 130.977 39.1346 130.966 39.0814C127.845 27.9955 127.27 25.95 127.194 25.5352C127.128 25.2995 127.194 25.1581 127.694 24.4888C127.779 24.3474 127.864 24.2343 127.892 24.1872C128.319 23.2014 128.509 22.1298 128.448 21.0575C128.258 19.2872 127.943 17.5326 127.505 15.8068C127.491 15.7494 127.488 15.6896 127.498 15.6311C127.507 15.5727 127.529 15.5169 127.562 15.4674C127.595 15.4176 127.638 15.375 127.688 15.3426C127.739 15.3102 127.795 15.2885 127.854 15.2789C129.384 14.9959 130.852 14.4471 132.192 13.6575C133.267 12.9411 134.625 9.99052 135.021 8.94416C135.053 8.86311 135.109 8.79367 135.181 8.7449C135.253 8.69613 135.339 8.6703 135.426 8.67078C135.511 8.67337 135.594 8.70055 135.664 8.74905C135.735 8.79754 135.789 8.8653 135.822 8.94416C136.576 10.8295 141.48 12.8562 143.29 13.4784C143.365 13.503 143.432 13.5476 143.484 13.6074C143.535 13.6672 143.569 13.74 143.582 13.8178C143.582 13.9026 145.119 22.9334 145.421 25.7426C145.761 28.8251 142.96 30.2297 141.027 30.6539L144.28 37.526C144.284 37.5667 144.284 37.6078 144.28 37.6485C144.383 38.3333 144.33 39.0325 144.125 39.6939C143.92 40.3553 143.568 40.962 143.096 41.4685C142.624 41.9751 142.043 42.3686 141.398 42.6195C140.752 42.8705 140.058 42.9725 139.368 42.918L138.99 42.9086ZM131.767 38.7514C132.724 39.8205 133.902 40.6686 135.219 41.2367C136.536 41.8049 137.962 42.0794 139.396 42.0413C140.003 42.0615 140.607 41.9535 141.169 41.7245C141.731 41.4955 142.239 41.1505 142.658 40.7122C143.285 39.8802 143.584 38.8467 143.498 37.8088L140.037 30.4936C140.007 30.4336 139.992 30.3674 139.992 30.3004C139.992 30.2333 140.007 30.1672 140.037 30.1071C140.07 30.0473 140.115 29.9958 140.171 29.9566C140.227 29.9174 140.29 29.8915 140.358 29.8809C140.546 29.8809 144.959 29.2304 144.591 25.818C144.309 23.301 143.036 15.6748 142.79 14.1854C141.668 13.7895 137.133 12.0833 135.511 10.0188C134.945 11.2726 133.785 13.6104 132.682 14.3739C131.369 15.1726 129.927 15.7372 128.42 16.0425C128.848 17.6816 129.144 19.3523 129.306 21.0386C129.374 22.252 129.151 23.464 128.656 24.5736C128.578 24.7101 128.493 24.8423 128.401 24.9696L128.062 25.4692C128.42 26.902 131.466 37.6674 131.767 38.7514Z" fill="#323F4B"/>
<path d="M142.13 33.7082C141.274 34.0608 140.353 34.2264 139.427 34.1939C138.502 34.1614 137.594 33.9315 136.765 33.5197C136.019 33.1731 135.357 32.668 134.826 32.0396C134.295 31.4111 133.908 30.6745 133.691 29.881C133.691 29.881 137.859 31.7663 140.82 30.2203L142.13 33.7082Z" fill="#323F4B"/>
<path d="M139.594 34.6225C138.542 34.6281 137.505 34.3722 136.576 33.8777C135.773 33.5047 135.061 32.9603 134.491 32.2828C133.921 31.6053 133.506 30.8112 133.276 29.9562C133.264 29.8805 133.273 29.8032 133.301 29.732C133.33 29.6608 133.376 29.5983 133.436 29.5509C133.5 29.5117 133.573 29.491 133.648 29.491C133.723 29.491 133.797 29.5117 133.861 29.5509C133.861 29.5509 137.887 31.3137 140.631 29.8997C140.684 29.8739 140.742 29.8604 140.801 29.8604C140.859 29.8604 140.917 29.8739 140.97 29.8997C141.025 29.9176 141.075 29.9483 141.116 29.9893C141.157 30.0302 141.188 30.0803 141.206 30.1353L142.526 33.6327C142.562 33.7305 142.559 33.8382 142.519 33.9342C142.479 34.0303 142.404 34.1077 142.309 34.1511C141.444 34.4877 140.521 34.6479 139.594 34.6225ZM134.379 30.5878C134.942 31.6984 135.848 32.5977 136.963 33.1519C137.675 33.5081 138.451 33.7199 139.246 33.7749C140.04 33.8299 140.838 33.7271 141.593 33.4724L140.593 30.7858C138.358 31.6908 135.709 31.012 134.379 30.5878Z" fill="#323F4B"/>
<path d="M142.168 18.5972C142.168 18.5972 145.855 21.5006 145.478 22.3679C145.101 23.2351 143.309 23.3105 143.309 23.3105" fill="#ACCCF8"/>
<path d="M143.309 23.697C143.201 23.6972 143.097 23.6564 143.018 23.5829C142.94 23.5093 142.892 23.4086 142.885 23.301C142.882 23.2466 142.89 23.1921 142.909 23.1408C142.927 23.0895 142.956 23.0424 142.993 23.0021C143.029 22.9618 143.074 22.9292 143.123 22.9061C143.173 22.883 143.226 22.8698 143.281 22.8674C143.78 22.8674 144.884 22.6129 145.1 22.1604C145.1 21.7928 143.611 20.2751 141.913 18.927C141.843 18.8531 141.802 18.7566 141.798 18.655C141.793 18.5534 141.825 18.4535 141.888 18.3735C141.951 18.2936 142.04 18.2388 142.14 18.2193C142.24 18.1998 142.344 18.2168 142.432 18.2672C144.233 19.7 146.336 21.5854 145.855 22.528C145.374 23.4707 143.535 23.7064 143.328 23.7158L143.309 23.697Z" fill="#323F4B"/>
<path d="M141.621 26.0826C140.999 26.0976 140.382 25.9632 139.823 25.6909C139.264 25.4186 138.778 25.0162 138.406 24.5174C138.338 24.4298 138.308 24.3191 138.322 24.2094C138.336 24.0998 138.394 24.0003 138.481 23.9327C138.569 23.8652 138.679 23.8352 138.789 23.8494C138.899 23.8635 138.998 23.9206 139.066 24.0082C141.055 26.5918 144.488 24.3948 144.629 24.3005C144.722 24.2426 144.834 24.2231 144.941 24.246C145.049 24.2688 145.143 24.3323 145.204 24.4231C145.234 24.4688 145.255 24.5201 145.265 24.5738C145.275 24.6275 145.274 24.6827 145.262 24.7361C145.251 24.7896 145.229 24.8403 145.198 24.8852C145.167 24.9302 145.128 24.9686 145.082 24.9983C144.051 25.673 142.853 26.0484 141.621 26.0826Z" fill="#323F4B"/>
<path d="M143.837 18.2393H143.734C143.412 18.1307 143.066 18.1112 142.734 18.1827C142.688 18.2096 142.637 18.2271 142.583 18.234C142.53 18.241 142.476 18.2374 142.425 18.2233C142.373 18.2093 142.324 18.1852 142.282 18.1523C142.24 18.1194 142.204 18.0785 142.178 18.0318C142.15 17.9838 142.131 17.9305 142.124 17.8753C142.117 17.82 142.121 17.7639 142.136 17.7102C142.151 17.6565 142.176 17.6064 142.211 17.5628C142.246 17.5193 142.289 17.4831 142.338 17.4566C142.853 17.2519 143.426 17.2519 143.941 17.4566C144.037 17.4858 144.119 17.5477 144.174 17.6316C144.228 17.7155 144.251 17.816 144.239 17.9152C144.226 18.0144 144.179 18.1061 144.106 18.174C144.032 18.2419 143.937 18.2817 143.837 18.2864V18.2393Z" fill="#323F4B"/>
<path d="M140.339 18.6824C140.259 18.6781 140.182 18.6555 140.112 18.6164C139.986 18.5243 139.891 18.3961 139.839 18.2487C139.707 17.9658 139.499 17.4849 137.802 18.1167C137.698 18.1554 137.583 18.1514 137.483 18.1054C137.382 18.0594 137.303 17.9753 137.265 17.8715C137.226 17.7677 137.23 17.6528 137.276 17.552C137.322 17.4512 137.406 17.3728 137.51 17.334C139.66 16.5325 140.339 17.2209 140.603 17.8998C140.649 17.9293 140.689 17.9678 140.719 18.0131C140.75 18.0584 140.772 18.1094 140.782 18.1632C140.793 18.217 140.792 18.2723 140.781 18.3259C140.77 18.3795 140.747 18.4302 140.716 18.475C140.676 18.5394 140.621 18.5924 140.555 18.6288C140.489 18.6652 140.414 18.6837 140.339 18.6824Z" fill="#323F4B"/>
<path d="M124.375 54.3055C124.375 54.3055 120.216 75.4497 112.117 79.4654C104.017 83.4812 87.5059 89.7406 87.5059 89.7406L93.9461 99.8271C93.9461 99.8271 109.976 101.335 119.585 95.3872C129.193 89.4389 141.442 69.1432 141.442 69.1432L124.375 54.3055Z" fill="#D5E6FB"/>
<path d="M146.609 29.7677C146.609 29.7677 187.74 20.7086 195.085 22.3771C202.431 24.0456 225.382 45.0861 225.382 45.0861L214.416 55.5214C214.416 55.5214 201.29 44.0868 189.277 38.4591C178.395 39.6657 154.68 45.6234 154.68 45.6234L146.609 29.7677Z" fill="#D5E6FB"/>
<path d="M135.445 16.9853C135.967 16.4388 136.331 15.7605 136.497 15.0232C136.663 14.286 136.625 13.5174 136.388 12.7999L143.837 16.4763C145.044 17.0702 142.489 7.89796 142.083 7.20981C140.471 4.47606 139.066 2.72269 136.096 1.4878C127.76 -1.98124 118.944 4.20269 113.607 9.83043C107.11 16.6837 96.5205 18.6067 87.3362 17.1079C82.763 16.3631 78.3595 14.7229 73.7579 14.2233C69.1281 13.717 64.4452 14.375 60.1344 16.1376C55.8236 17.9001 52.0215 20.7114 49.0735 24.316C46.1255 27.9206 44.1249 32.2044 43.2535 36.7782C42.3821 41.3521 42.6674 46.0711 44.0836 50.5067C47.1576 60.1408 57.4074 68.0969 67.1479 65.3821C69.1752 64.8165 71.1271 63.8361 73.2204 63.8361C76.2756 63.8361 78.8781 65.9194 81.5089 67.4277C84.9369 69.3031 88.7477 70.3721 92.6513 70.5534C96.5549 70.7348 100.448 70.0236 104.036 68.474C108.175 66.6924 109.392 65.2501 110.966 61.3663C112.286 58.1235 112.975 54.0323 116.671 52.5994C118.5 51.883 120.603 52.1375 122.442 51.4588C124.336 50.5983 125.917 49.1724 126.968 47.377C132.626 38.9684 133.257 28.2785 129.542 19.0969C131.768 19.7568 133.814 18.8707 135.445 16.9853Z" fill="#ACCCF8"/>
<path d="M93.7481 71.0379C89.3793 71.0677 85.0776 69.9633 81.2636 67.8329C80.7261 67.5312 80.1887 67.2013 79.6512 66.8902C77.6144 65.6364 75.5117 64.3356 73.2109 64.3261C71.804 64.4119 70.4211 64.7304 69.1186 65.2688C68.5151 65.4762 67.9022 65.6836 67.2893 65.8533C58.9537 68.1817 47.4875 62.6293 43.6403 50.6668C42.2027 46.1565 41.9143 41.3587 42.8013 36.7088C43.6883 32.0588 45.7227 27.7039 48.7198 24.0391C51.7169 20.3743 55.5819 17.5156 59.9641 15.7224C64.3464 13.9293 69.1071 13.2584 73.8144 13.7707C76.3994 14.1168 78.9576 14.6396 81.4711 15.3355C83.4135 15.8257 85.4125 16.3347 87.4116 16.6552C95.3983 17.9656 106.383 16.7778 113.267 9.51922C116.954 5.63541 126.581 -2.96175 136.275 1.03518C139.311 2.29836 140.801 4.09886 142.489 6.96458C142.489 7.03999 145.383 15.7031 144.375 16.7684C144.278 16.8691 144.151 16.9356 144.013 16.9577C143.875 16.9799 143.734 16.9564 143.611 16.8909L137.01 13.6575C137.053 14.3162 136.963 14.9767 136.746 15.6001C136.529 16.2234 136.189 16.797 135.747 17.2868C135.121 18.1194 134.292 18.7782 133.34 19.2005C132.388 19.6229 131.343 19.7949 130.306 19.7001C132.077 24.2521 132.734 29.1618 132.22 34.0192C131.707 38.8766 130.039 43.5406 127.354 47.622C126.412 49.0549 124.837 51.0533 122.64 51.8734C121.683 52.1873 120.692 52.3836 119.688 52.4579C118.725 52.5211 117.775 52.708 116.86 53.0141C114.031 54.1076 113.088 56.8885 112.145 59.6128C111.909 60.2726 111.673 60.9325 111.428 61.5547C109.844 65.4385 108.599 67.041 104.243 68.9169C100.925 70.3275 97.354 71.0491 93.7481 71.0379ZM73.192 63.3646C75.7663 63.3646 77.9822 64.7409 80.1321 66.0606C80.6601 66.3906 81.1882 66.7111 81.7162 67.0033C85.0802 68.842 88.819 69.8901 92.6488 70.0682C96.4786 70.2462 100.299 69.5495 103.819 68.0308C107.892 66.2775 109.014 64.854 110.504 61.1776C110.749 60.5743 110.976 59.9333 111.202 59.2923C112.23 56.3983 113.276 53.4006 116.473 52.1562C117.46 51.8188 118.487 51.6128 119.528 51.5435C120.454 51.4742 121.368 51.297 122.253 51.0156C124.233 50.2803 125.648 48.4421 126.553 47.113C129.228 43.0315 130.857 38.3551 131.298 33.4958C131.738 28.6364 130.977 23.7433 129.08 19.2476C129.047 19.1638 129.039 19.0726 129.056 18.9843C129.072 18.896 129.113 18.8141 129.174 18.748C129.233 18.6823 129.31 18.6349 129.395 18.6116C129.481 18.5882 129.571 18.5897 129.655 18.616C132.079 19.3701 133.936 17.975 135.068 16.7307C135.534 16.2494 135.86 15.6502 136.012 14.9975C136.163 14.3447 136.133 13.6631 135.926 13.026C135.888 12.9363 135.879 12.8369 135.901 12.7421C135.924 12.6473 135.975 12.5619 136.048 12.4981C136.118 12.4337 136.206 12.392 136.301 12.3785C136.395 12.3651 136.491 12.3804 136.576 12.4226L143.686 15.9294C143.295 13.0372 142.603 10.1937 141.621 7.44534C140.009 4.69274 138.67 3.08077 135.869 1.91186C126.704 -1.85882 117.454 6.39898 113.899 10.1414C106.77 17.6828 95.4454 18.9082 87.2041 17.5602C85.1768 17.2303 83.1495 16.7212 81.1976 16.2216C78.7219 15.5348 76.2013 15.0214 73.6541 14.6851C69.1033 14.1882 64.5005 14.8359 60.2637 16.5694C56.0269 18.3028 52.2905 21.067 49.3939 24.6109C46.4973 28.1548 44.5322 32.3661 43.6773 36.8621C42.8224 41.3581 43.1046 45.9965 44.4984 50.3557C47.3838 59.4148 57.3318 67.6161 66.9875 64.9294C67.5816 64.7598 68.1756 64.5618 68.7602 64.3544C70.1726 63.7818 71.6702 63.4474 73.192 63.3646Z" fill="#323F4B"/>
<path d="M45.4413 154.116C43.8477 153.013 99.896 140.494 190.107 116.918C230.408 106.379 264.514 104.229 275.726 112.61C286.937 120.99 269.964 155.03 215.378 175.656C160.791 196.281 99.1888 191.125 45.4413 154.116Z" fill="#323F4B"/>
<path d="M127.241 167.021C127.135 167.021 127.032 166.982 126.954 166.91C126.875 166.838 126.826 166.74 126.817 166.634C126.812 166.522 126.85 166.412 126.924 166.328C126.998 166.244 127.101 166.191 127.213 166.182C196.726 161.591 267.154 123.761 267.852 123.347C267.95 123.294 268.064 123.283 268.17 123.314C268.276 123.346 268.365 123.419 268.418 123.516C268.471 123.614 268.482 123.728 268.45 123.834C268.419 123.94 268.346 124.029 268.248 124.082C267.551 124.459 196.962 162.411 127.26 167.021H127.241Z" fill="#ACCCF8"/>
<path d="M146.609 80.1159C146.479 80.116 146.354 80.0653 146.26 79.9745C141.282 74.6767 129.071 67.0128 128.948 66.9279C128.895 66.897 128.848 66.8555 128.811 66.806C128.775 66.7565 128.748 66.7 128.734 66.64C128.72 66.5799 128.718 66.5176 128.729 66.4569C128.74 66.3962 128.763 66.3384 128.797 66.2869C128.829 66.2332 128.871 66.1866 128.922 66.1497C128.972 66.1129 129.029 66.0866 129.09 66.0725C129.151 66.0584 129.214 66.0568 129.275 66.0677C129.337 66.0786 129.396 66.1019 129.448 66.1361C129.948 66.4472 141.885 73.9414 146.949 79.3335C147.015 79.3986 147.061 79.4824 147.079 79.5738C147.097 79.6652 147.087 79.76 147.05 79.8456C147.014 79.9313 146.952 80.0039 146.873 80.0538C146.794 80.1037 146.702 80.1286 146.609 80.1253V80.1159Z" fill="#323F4B"/>
<path d="M89.3918 189.126C52.1581 177.72 20.879 152.179 2.26425 117.983C0.604677 114.91 -0.658859 110.442 2.18882 108.462C6.32345 110.998 9.62195 114.692 11.6748 119.086C3.29206 109.254 -2.81819 90.9754 2.34911 78.3342C3.00917 76.7222 4.33871 74.9971 6.12087 75.2045C7.90302 75.4119 8.66681 77.203 9.17599 78.749C10.845 83.5943 11.1562 88.6282 13.1458 93.3604C15.1354 98.0926 17.1533 102.655 19.454 107.133C23.9195 116.192 29.2566 124.795 35.3897 132.821C33.5038 130.436 32.806 125.788 31.9574 122.932C30.8143 118.927 30.8143 114.682 31.9574 110.677C32.2226 109.194 33.0124 107.856 34.1827 106.907C34.9719 106.471 35.8721 106.277 36.7708 106.349C37.6696 106.421 38.5273 106.756 39.2369 107.312C40.6437 108.447 41.7267 109.933 42.3769 111.62C45.6017 118.784 45.7903 126.985 48.6946 134.291C51.91 142.36 58.916 149.845 65.262 155.633C72.5506 162.294 80.8716 167.728 89.901 171.725C86.6516 166.914 84.7026 161.344 84.2433 155.558C85.1863 154.144 87.4211 154.2 88.8166 155.181C90.2122 156.161 91.0137 157.754 91.8717 159.234C94.3203 163.378 97.5912 166.976 101.483 169.809C105.375 172.641 109.806 174.647 114.502 175.703C120.037 176.919 150.57 184.272 217.99 174.76C217.99 174.76 182.894 187.015 162.262 190.427C140.15 193.972 110.834 195.584 89.3918 189.126Z" fill="#D5E6FB"/>
<path d="M124.648 194C112.833 194 100.254 192.897 89.2219 189.579C51.8441 178.195 20.4527 152.556 1.83981 118.209C0.89687 116.494 -1.7905 110.668 1.91525 108.076C1.99127 108.022 2.08179 107.994 2.17455 107.994C2.26731 107.994 2.35783 108.022 2.43386 108.076C3.44386 108.694 4.40814 109.384 5.31925 110.14C0.397114 100.157 -1.91309 87.5159 1.91525 78.174C2.65074 76.3735 4.13115 74.5164 6.13018 74.7521C7.64831 74.9218 8.7987 76.185 9.62849 78.6076C10.3242 80.7717 10.891 82.9752 11.3258 85.2063C11.8297 87.9315 12.5841 90.6043 13.5794 93.1908C15.6633 98.1587 17.7189 102.617 19.8782 106.944C23.6764 114.611 28.0913 121.957 33.0794 128.909C32.7211 127.768 32.4287 126.58 32.1364 125.458C31.9196 124.582 31.7215 123.752 31.5047 123.036C30.3391 118.951 30.3391 114.621 31.5047 110.536C31.776 108.92 32.6276 107.459 33.8997 106.426C34.7697 105.939 35.7637 105.719 36.7579 105.793C37.7522 105.866 38.7028 106.231 39.4914 106.841C40.958 108.028 42.0891 109.578 42.7728 111.337C44.3524 115.221 45.5094 119.263 46.2239 123.394C46.8826 127.02 47.8479 130.583 49.1093 134.046C51.693 140.56 57.0772 147.479 65.5542 155.219C72.4073 161.492 80.1867 166.671 88.6185 170.575C85.8332 165.999 84.1663 160.832 83.7529 155.492C83.7453 155.386 83.7717 155.28 83.8283 155.19C84.0572 154.863 84.3496 154.585 84.6882 154.373C85.0268 154.16 85.4046 154.019 85.7991 153.955C86.9437 153.772 88.1152 154.035 89.0711 154.691C90.2955 155.685 91.2814 156.942 91.9565 158.367L92.2676 158.895C94.686 162.977 97.9118 166.522 101.748 169.315C105.584 172.108 109.949 174.089 114.578 175.137L115.011 175.231C138.953 180.539 175.491 180.162 217.895 174.185C217.957 174.171 218.021 174.169 218.084 174.179C218.147 174.19 218.207 174.213 218.261 174.246C218.314 174.28 218.361 174.324 218.398 174.376C218.435 174.428 218.461 174.486 218.475 174.548C218.49 174.61 218.491 174.674 218.481 174.737C218.47 174.799 218.448 174.859 218.414 174.913C218.38 174.967 218.336 175.014 218.284 175.05C218.233 175.087 218.174 175.114 218.112 175.128C217.763 175.25 182.743 187.467 162.309 190.814C149.858 192.859 137.266 193.925 124.648 194ZM89.4954 188.674C114.955 196.338 148.769 192.077 162.102 189.89C178.028 187.269 202.893 179.238 213.124 175.816C172.672 181.17 137.878 181.321 114.747 176.193L114.314 176.099C109.557 175.022 105.071 172.986 101.13 170.115C97.1881 167.244 93.8741 163.6 91.3907 159.404L91.089 158.867C90.4674 157.572 89.577 156.425 88.477 155.501C87.7282 154.986 86.8093 154.78 85.9122 154.926C85.4189 155 84.9696 155.252 84.6487 155.633C85.1255 161.276 87.0408 166.703 90.212 171.395C90.2718 171.477 90.304 171.576 90.304 171.678C90.304 171.779 90.2718 171.878 90.212 171.96C90.1439 172.037 90.0541 172.09 89.9546 172.114C89.8551 172.137 89.7508 172.13 89.6557 172.092C80.5753 168.08 72.2088 162.616 64.8847 155.916C56.304 148.083 50.8443 141.041 48.2041 134.395C46.923 130.88 45.942 127.263 45.2716 123.582C44.5699 119.526 43.435 115.557 41.8864 111.743C41.267 110.135 40.2402 108.715 38.9067 107.623C38.27 107.129 37.5039 106.83 36.7008 106.761C35.8977 106.692 35.0919 106.858 34.3806 107.237C33.3128 108.134 32.5951 109.379 32.3533 110.753C31.2298 114.671 31.2298 118.825 32.3533 122.744C32.5702 123.479 32.7776 124.318 32.9945 125.204C33.6451 127.815 34.3806 130.775 35.7007 132.481C35.7431 132.53 35.7752 132.586 35.7949 132.648C35.8146 132.709 35.8215 132.773 35.8153 132.837C35.8091 132.902 35.7898 132.964 35.7586 133.02C35.7275 133.076 35.6851 133.126 35.6342 133.165C35.5832 133.204 35.5248 133.233 35.4624 133.249C35.4 133.264 35.3351 133.267 35.2715 133.257C35.208 133.247 35.1472 133.224 35.0929 133.189C35.0386 133.155 34.9919 133.11 34.9558 133.056C28.8228 125.035 23.4917 116.431 19.039 107.369C16.8703 103.051 14.8052 98.5357 12.7119 93.5584C11.691 90.9177 10.9176 88.188 10.4017 85.4043C9.97524 83.2111 9.41791 81.0454 8.73269 78.9187C8.03492 76.8731 7.14856 75.8173 6.02646 75.6854C4.55547 75.5063 3.39566 77.0522 2.79218 78.5134C-1.2436 88.3737 1.74552 101.986 7.39372 112.044C9.33291 114.049 10.9261 116.362 12.1084 118.888C12.1564 118.991 12.1656 119.107 12.1344 119.217C12.1032 119.326 12.0337 119.42 11.9387 119.482C11.8418 119.541 11.7272 119.564 11.615 119.547C11.5028 119.529 11.4004 119.473 11.3258 119.388C9.53994 117.292 7.96103 115.028 6.61108 112.629C5.28212 111.26 3.79795 110.052 2.1887 109.028C0.0576565 110.856 1.00059 114.684 2.65074 117.757C21.1453 151.896 52.3503 177.375 89.5048 188.674H89.4954Z" fill="#323F4B"/>
<path d="M17.1534 58.9529C17.3402 58.6017 17.6402 58.3239 18.0049 58.1647C18.3695 58.0056 18.7773 57.9744 19.1619 58.0762C20.1048 58.4533 20.2746 59.7353 20.2746 60.7628C20.2746 63.4777 20.482 66.1738 20.614 68.8792C20.7177 70.7646 21.7267 75.7042 20.6989 77.3633C19.1619 79.8236 17.9549 76.5243 17.3703 74.5352C16.2105 70.708 14.9941 62.667 17.1534 58.9529Z" fill="#D5E6FB"/>
<path d="M19.6428 78.6924H19.4919C18.549 78.5604 17.7569 77.335 16.9554 74.7143C15.7013 70.5477 14.532 62.535 16.7857 58.6889C17.027 58.24 17.4157 57.8881 17.8863 57.6923C18.357 57.4965 18.8807 57.469 19.3693 57.6143C20.8026 58.161 20.7837 60.1029 20.7837 60.744C20.7837 62.7236 20.8874 64.7409 21.0006 66.6922C21.0006 67.3992 21.0949 68.1156 21.1232 68.8226C21.1232 69.2846 21.2269 69.9256 21.3212 70.708C21.6229 73.1589 22.0001 76.2226 21.142 77.5895C20.6894 78.3248 20.1802 78.6924 19.6428 78.6924ZM18.6998 58.4627C18.4653 58.4829 18.2394 58.5606 18.0421 58.6889C17.8447 58.8171 17.682 58.9919 17.5683 59.198C15.5787 62.5539 16.5216 70.1235 17.8229 74.4315C18.7658 77.4104 19.3882 77.7215 19.5768 77.7497C19.7653 77.778 20.0294 77.5235 20.3028 77.0899C20.9817 76.0058 20.6046 72.8856 20.35 70.8211C20.2557 70.0575 20.1708 69.3882 20.1519 68.9358C20.1519 68.2288 20.0671 67.5218 20.0294 66.8148C19.9068 64.8446 19.7842 62.8178 19.8031 60.8005C19.8031 59.4996 19.5485 58.7643 18.9921 58.557C18.9136 58.5106 18.8274 58.4787 18.7375 58.4627H18.6998Z" fill="#CBD2D9"/>
<path d="M68.3074 135.177C67.7228 133.745 67.1382 132.302 66.5441 130.869C65.1675 127.504 60.3962 125.996 59.4533 130.351C58.8215 133.254 60.6979 136.95 61.7257 139.551C63.0087 142.959 64.9288 146.091 67.3834 148.78C68.6186 150.109 75.8227 154.436 73.9274 149.487C72.0321 144.538 70.231 139.928 68.3074 135.177Z" fill="#D5E6FB"/>
<path d="M73.2862 152.258C71.2589 152.258 67.8172 149.902 67.0723 149.101C64.555 146.359 62.5893 143.158 61.2826 139.674C61.1129 139.24 60.9337 138.788 60.7357 138.316C59.7079 135.847 58.435 132.773 58.9913 130.209C59.3779 128.399 60.4717 127.297 61.971 127.165C63.8569 127.004 66.1105 128.522 66.9874 130.643L68.7413 134.951C70.6272 139.664 72.5696 144.519 74.3989 149.27C74.9364 150.646 74.8515 151.561 74.1632 151.995C73.9025 152.165 73.5979 152.257 73.2862 152.258ZM62.2821 128.107H62.0558C60.962 128.201 60.17 129.05 59.9059 130.417C59.4156 132.698 60.632 135.62 61.6032 137.958L62.1596 139.325C63.4306 142.683 65.3317 145.768 67.7606 148.412C68.7884 149.506 72.7582 151.759 73.6634 151.193C73.8991 151.052 73.8426 150.439 73.522 149.61C71.6927 144.896 69.7502 140.051 67.8643 135.309C67.2797 133.864 66.692 132.428 66.1011 131.001C65.7964 130.212 65.2777 129.523 64.6031 129.012C63.9286 128.5 63.1248 128.187 62.2821 128.107Z" fill="#323F4B"/>
<path d="M156.859 45.5576C156.751 45.5559 156.646 45.5178 156.562 45.4494C156.478 45.3809 156.42 45.2862 156.397 45.1806C156.384 45.1199 156.384 45.0574 156.396 44.9966C156.408 44.9358 156.431 44.878 156.465 44.8263C156.5 44.7747 156.544 44.7302 156.595 44.6956C156.646 44.661 156.704 44.6368 156.764 44.6244L189.183 38.0257C189.245 38.0133 189.308 38.0132 189.37 38.0255C189.432 38.0377 189.491 38.0621 189.544 38.0971C189.596 38.1321 189.641 38.1771 189.677 38.2296C189.712 38.282 189.736 38.3409 189.748 38.4028C189.761 38.4647 189.761 38.5284 189.749 38.5903C189.736 38.6522 189.712 38.7111 189.677 38.7637C189.642 38.8162 189.597 38.8613 189.545 38.8964C189.492 38.9315 189.433 38.956 189.371 38.9684L156.953 45.5671L156.859 45.5576Z" fill="#323F4B"/>
<path d="M29.0438 85.9321C28.4739 85.6024 27.8023 85.495 27.1579 85.6305C25.9887 85.951 25.5078 87.3273 25.3475 88.5339C25.0906 90.5116 25.2089 92.52 25.6964 94.4539C26.215 96.4901 27.4031 99.3181 30.0528 98.6488C35.0032 97.4233 32.4007 87.6572 29.0438 85.9321Z" fill="#D5E6FB"/>
<path d="M29.3266 99.2238C27.4407 99.2238 26.0452 97.6024 25.2814 94.567C24.7812 92.5743 24.6596 90.5054 24.9231 88.4679C25.1588 86.658 25.9226 85.4891 27.073 85.1685C27.817 85.0049 28.5955 85.1295 29.2512 85.5173C31.6274 86.7334 33.6358 91.5881 33.2304 95.142C32.9852 97.2725 31.9102 98.6865 30.2035 99.1107C29.917 99.1841 29.6224 99.2221 29.3266 99.2238ZM27.6765 86.0264C27.5577 86.0086 27.4369 86.0086 27.3181 86.0264C26.2903 86.3092 25.9603 87.7232 25.8566 88.5339C25.6057 90.4549 25.7208 92.406 26.196 94.2842C26.7147 96.3392 27.7896 98.6959 29.9678 98.1397C30.6389 97.9263 31.225 97.5057 31.6418 96.9382C32.0586 96.3708 32.2846 95.6858 32.2874 94.9818C32.6457 91.805 30.8636 87.3461 28.8174 86.2998C28.4621 86.1263 28.0719 86.036 27.6765 86.0358V86.0264Z" fill="#D5E6FB"/>
<path d="M5.0928 58.1329C4.90731 57.9273 4.66261 57.7842 4.39241 57.7234C4.1222 57.6627 3.8398 57.6871 3.5841 57.7935C3.3415 57.9796 3.1478 58.2218 3.01967 58.4993C2.89154 58.7769 2.83284 59.0814 2.84861 59.3866C2.65059 61.4416 2.05654 66.4755 4.73448 67.2014C8.0442 68.0781 6.38462 59.4526 5.0928 58.1329Z" fill="#D5E6FB"/>
<path d="M5.20614 67.7763C5.01526 67.7732 4.8254 67.7479 4.64037 67.7009C1.6324 66.8996 2.12273 61.9601 2.35846 59.5845V59.3866C2.35086 58.9991 2.43895 58.6157 2.61494 58.2704C2.79093 57.9251 3.04938 57.6285 3.36741 57.407C3.7117 57.2474 4.09812 57.2025 4.46985 57.2788C4.84158 57.3552 5.17899 57.5488 5.43244 57.8311C6.55454 58.9812 7.9218 64.7127 6.64883 66.8902C6.51419 67.1571 6.30796 67.3814 6.05319 67.5378C5.79842 67.6943 5.50515 67.7769 5.20614 67.7763ZM4.06518 58.1988C3.97727 58.1995 3.8905 58.2187 3.81059 58.2554C3.54656 58.4062 3.38627 58.7927 3.32026 59.4808V59.6788C3.12224 61.6301 2.66963 66.1926 4.90439 66.7865C5.07736 66.8606 5.27235 66.8647 5.44825 66.7979C5.62415 66.731 5.76723 66.5985 5.84733 66.4283C6.85628 64.7032 5.62103 59.3866 4.77238 58.5099C4.59213 58.3032 4.3385 58.1747 4.06518 58.1517V58.1988Z" fill="#D5E6FB"/>
<path d="M11.5428 47.4617C11.4108 47.0281 11.1373 46.519 10.6753 46.519C10.2132 46.519 10.0718 46.915 9.94921 47.2638C9.50603 48.4704 9.45888 51.6283 10.647 52.505C11.8351 53.3817 12.1934 51.7791 12.2123 50.9967C12.1766 49.7905 11.9507 48.5975 11.5428 47.4617Z" fill="white"/>
<path d="M11.2503 53.2403C10.9286 53.2268 10.6203 53.1075 10.3734 52.9009C8.90239 51.8263 9.04383 48.3573 9.50587 47.1129C9.57407 46.8495 9.71885 46.6121 9.92193 46.4309C10.125 46.2497 10.3773 46.1328 10.6468 46.0948C11.0146 46.0948 11.5898 46.208 11.9952 47.3486C12.422 48.5386 12.6544 49.7895 12.6836 51.0533C12.6836 51.6566 12.4573 52.7878 11.7406 53.1555C11.5856 53.2201 11.418 53.2491 11.2503 53.2403ZM10.7034 47.0375C10.628 47.0375 10.4865 47.1978 10.3922 47.4711C9.98677 48.5552 9.98677 51.4775 10.9297 52.1845C11.0051 52.2411 11.2032 52.373 11.3069 52.3165C11.4106 52.2599 11.7312 51.5906 11.7406 51.0439C11.701 49.8836 11.4847 48.7361 11.0994 47.6408C10.9769 47.2166 10.8071 47.0375 10.7034 47.0375Z" fill="#CBD2D9"/>
<path d="M112.928 188.137H112.833C85.4881 182.575 67.8175 171.923 57.794 163.967C46.9125 155.322 42.443 147.903 42.3958 147.809C42.3335 147.7 42.3164 147.571 42.3481 147.449C42.3798 147.328 42.4579 147.223 42.5656 147.159C42.6733 147.097 42.801 147.08 42.9211 147.112C43.0411 147.144 43.1438 147.221 43.2068 147.328C43.3765 147.621 61.1226 176.645 112.984 187.203C113.109 187.216 113.224 187.278 113.304 187.375C113.383 187.472 113.421 187.597 113.409 187.722C113.396 187.847 113.334 187.962 113.237 188.041C113.14 188.121 113.015 188.159 112.89 188.146L112.928 188.137Z" fill="#CBD2D9"/>
<path d="M10.9298 100.506C10.844 100.505 10.76 100.481 10.6869 100.436C10.6138 100.391 10.5543 100.327 10.5149 100.251C7.68605 94.6424 4.25375 85.4513 4.22547 85.3571C4.18252 85.2408 4.18713 85.1122 4.23832 84.9993C4.2895 84.8864 4.38313 84.7982 4.49892 84.7538C4.61776 84.711 4.74866 84.7167 4.86335 84.7696C4.97803 84.8225 5.06729 84.9184 5.11183 85.0366C5.11183 85.1214 8.52527 94.2653 11.3541 99.8177C11.3833 99.8732 11.401 99.9341 11.4064 99.9966C11.4117 100.059 11.4045 100.122 11.3852 100.182C11.3659 100.241 11.3348 100.297 11.2938 100.344C11.2529 100.392 11.2028 100.431 11.1466 100.459C11.0782 100.489 11.0045 100.505 10.9298 100.506Z" fill="#CBD2D9"/>
<path d="M152.606 188.212C149.089 188.212 145.468 188.212 142.526 188.061C142.402 188.054 142.285 187.999 142.201 187.908C142.116 187.816 142.071 187.696 142.073 187.571C142.085 187.449 142.141 187.335 142.232 187.251C142.322 187.167 142.441 187.12 142.564 187.119C151.305 187.467 166.09 187.119 166.241 187.119C166.302 187.117 166.362 187.128 166.418 187.15C166.475 187.172 166.527 187.205 166.57 187.247C166.614 187.289 166.649 187.339 166.674 187.395C166.698 187.451 166.711 187.51 166.712 187.571C166.715 187.634 166.705 187.696 166.683 187.755C166.661 187.814 166.627 187.868 166.584 187.913C166.541 187.959 166.49 187.996 166.432 188.021C166.375 188.047 166.313 188.06 166.25 188.061C166.137 188.061 159.584 188.212 152.606 188.212Z" fill="#CBD2D9"/>
</svg>
