<svg width="400" height="300" viewBox="-105 -55 400 300" fill="none" xmlns="http://www.w3.org/2000/svg">
<path d="M26.9852 51.5921C37.2378 51.5921 45.5492 43.2807 45.5492 33.0281C45.5492 22.7755 37.2378 14.4641 26.9852 14.4641C16.7326 14.4641 8.42123 22.7755 8.42123 33.0281C8.42123 43.2807 16.7326 51.5921 26.9852 51.5921Z" fill="#ACCCF8"/>
<path d="M108.648 22.7607C105.498 22.9962 101.59 23.633 99.8279 21.0159C98.6327 19.2712 98.9555 16.4622 97.2108 15.2758C96.1639 14.5866 94.8031 14.7523 93.5556 14.8047C91.2695 15.0172 88.9835 14.3977 87.1175 13.0599C85.3728 11.6293 84.4393 8.99471 85.5036 6.95337C86.0651 5.98613 86.8996 5.20619 87.9026 4.71139C90.8338 3.11496 94.7507 3.20219 97.2631 5.39184C99.3568 7.20636 100.404 10.2771 102.977 11.3065C104.608 11.9608 106.467 11.6118 108.211 11.542C109.956 11.4722 111.98 11.8561 112.852 13.3827C113.629 14.7262 113.21 16.4796 113.838 17.8929C114.71 19.847 117.109 20.4402 118.985 21.4696C120.861 22.499 123.931 25.3254 123.739 27.7681C123.548 30.2107 121.018 31.2575 119.02 29.7309C117.729 28.7625 117.642 26.5293 116.621 25.2992C114.649 22.9962 111.509 22.5426 108.648 22.7607Z" fill="#ACCCF8"/>
<path d="M120.939 30.9002C120.132 30.887 119.351 30.6114 118.715 30.115C117.952 29.412 117.41 28.5029 117.153 27.4979C116.967 26.8294 116.672 26.1958 116.281 25.6223C114.737 23.7555 112.189 22.9442 108.717 23.1972L107.784 23.2757C104.713 23.5374 101.232 23.834 99.4965 21.2518C99.0116 20.422 98.6695 19.5167 98.4845 18.5736C98.1792 17.3697 97.8826 16.2357 96.9753 15.6337C96.0513 15.1886 95.0115 15.0422 94.0005 15.215H93.5818C91.6539 15.3022 88.9146 15.058 86.8471 13.4005C85.05 11.9436 83.9072 9.03864 85.1024 6.77921C85.7139 5.7283 86.6251 4.88385 87.7195 4.35403C89.2469 3.4795 91.001 3.08196 92.7562 3.21255C94.5114 3.34314 96.1874 3.99588 97.5685 5.08682C98.4 5.87372 99.1403 6.7516 99.7756 7.70392C100.77 9.07354 101.712 10.321 103.16 10.9491C104.408 11.3318 105.727 11.4243 107.016 11.2196C107.409 11.2196 107.801 11.1585 108.194 11.1498C109.607 11.0887 112.128 11.2893 113.236 13.2086C113.623 14.0062 113.831 14.8784 113.847 15.7646C113.865 16.4478 113.998 17.1231 114.239 17.7623C114.824 19.0796 116.228 19.7251 117.729 20.3794C118.226 20.6062 118.732 20.8418 119.203 21.0948C121.332 22.2637 124.385 25.2036 124.184 27.812C124.153 28.4 123.963 28.9686 123.635 29.4572C123.306 29.9457 122.851 30.3359 122.318 30.5861C121.888 30.7936 121.417 30.901 120.939 30.9002ZM109.869 22.2724C112.992 22.2724 115.417 23.2233 116.926 25.0553C117.396 25.718 117.75 26.4554 117.973 27.2362C118.181 28.0802 118.619 28.8502 119.238 29.4608C119.605 29.7639 120.047 29.9614 120.517 30.0321C120.987 30.1028 121.468 30.044 121.908 29.862C122.3 29.6778 122.633 29.3889 122.872 29.0272C123.111 28.6655 123.245 28.245 123.26 27.812C123.425 25.7096 120.686 22.9965 118.732 21.9322C118.279 21.6792 117.79 21.4612 117.31 21.2343C115.74 20.519 114.117 19.7688 113.393 18.1462C113.115 17.4207 112.959 16.6543 112.931 15.878C112.928 15.1149 112.758 14.3616 112.434 13.6709C111.561 12.1006 109.162 12.0134 108.185 12.057C107.801 12.057 107.418 12.1006 107.042 12.1268C105.619 12.3426 104.165 12.2261 102.794 11.7866C101.11 11.1149 100.055 9.65802 99.0254 8.25351C98.4295 7.35941 97.7361 6.53432 96.9579 5.79343C94.7159 3.85678 90.9909 3.58634 88.0859 5.17405C87.1659 5.60951 86.3929 6.30374 85.8613 7.17177C84.8581 9.06481 85.8613 11.4725 87.3618 12.7026C89.2112 14.1943 91.7237 14.4473 93.512 14.3252H93.922C95.115 14.1355 96.3373 14.331 97.4115 14.8835C98.6066 15.6686 98.9556 17.0295 99.2871 18.373C99.4441 19.2151 99.7389 20.0256 100.159 20.772C101.608 22.9354 104.818 22.6563 107.644 22.4208L108.595 22.3422C109.04 22.2899 109.459 22.2724 109.869 22.2724Z" fill="#D5E6FB"/>
<path d="M134.67 18.6601C133.517 17.8987 132.542 16.8973 131.812 15.7245C131.082 14.5516 130.614 13.2349 130.439 11.8643C130.446 10.6364 130.248 9.41586 129.855 8.25274C129.27 7.02271 127.997 6.20268 127.456 4.94647C127.124 4.1864 127.093 3.32873 127.37 2.54695C127.647 1.76517 128.21 1.11763 128.946 0.735281C129.682 0.352936 130.535 0.26433 131.334 0.487386C132.133 0.710441 132.817 1.22851 133.248 1.93681C133.684 2.79318 133.948 3.72681 134.025 4.68476C134.214 6.59236 134.991 8.39401 136.249 9.84045C138.212 11.7858 141.684 12.3529 142.548 14.9787C142.949 16.2175 142.548 17.5958 143.001 18.8433C143.422 19.7279 144.015 20.5198 144.746 21.1725C146.133 22.8126 147.974 26.5463 146.927 28.7621C145.88 30.9779 143.141 31.0215 141.815 28.9017C140.942 27.5408 141.675 25.4122 141.169 23.903C140.184 20.9893 137.837 20.2129 135.377 19.0178C135.167 18.9218 134.897 18.7909 134.67 18.6601Z" fill="#ACCCF8"/>
<path d="M144.371 30.8909C143.771 30.8782 143.184 30.711 142.668 30.4053C142.151 30.0997 141.722 29.666 141.422 29.1462C140.964 28.2167 140.785 27.1743 140.908 26.1452C140.957 25.4454 140.898 24.7422 140.733 24.0603C139.922 21.6613 138.116 20.8151 136.022 19.838L135.15 19.428C134.906 19.3059 134.67 19.175 134.435 19.0267C133.226 18.2323 132.204 17.1854 131.439 15.958C130.674 14.7306 130.184 13.3519 130.003 11.9169C129.959 11.5767 129.933 11.2365 129.916 10.8875C129.916 10.0516 129.759 9.22309 129.453 8.44491C129.158 7.89915 128.788 7.3971 128.354 6.95316C127.818 6.41905 127.378 5.79632 127.054 5.11247C126.703 4.25513 126.686 3.29743 127.006 2.42794C127.326 1.55844 127.959 0.840159 128.782 0.414509C129.605 -0.0111408 130.557 -0.113313 131.452 0.128114C132.346 0.369541 133.118 0.937072 133.615 1.71896C134.048 2.53054 134.314 3.42022 134.4 4.33606L134.443 4.62394C134.688 6.0808 135.167 8.17447 136.546 9.53537C137.336 10.2317 138.216 10.8185 139.163 11.2801C140.733 12.1525 142.364 13.0248 142.94 14.8219C143.124 15.4862 143.206 16.1744 143.185 16.8633C143.158 17.4753 143.229 18.0877 143.394 18.6778C143.647 19.2936 144.031 19.8472 144.519 20.3004L145.034 20.8761C146.604 22.7256 148.401 26.564 147.276 28.9281C147.039 29.4669 146.659 29.931 146.178 30.2706C145.697 30.6103 145.133 30.8126 144.545 30.856L144.371 30.8909ZM130.413 0.86404C129.989 0.859543 129.569 0.958341 129.192 1.15192C128.577 1.49982 128.108 2.05604 127.868 2.72002C127.628 3.384 127.633 4.11194 127.883 4.77224C128.179 5.3626 128.568 5.90161 129.035 6.36868C129.533 6.88435 129.951 7.4726 130.273 8.11341C130.62 8.97931 130.8 9.9026 130.806 10.8352C130.806 11.158 130.806 11.4895 130.884 11.8122C131.048 13.1183 131.493 14.3734 132.189 15.4908C132.885 16.6083 133.815 17.5616 134.914 18.2852C135.124 18.4161 135.333 18.5295 135.551 18.6429L136.424 19.0442C138.605 20.0648 140.655 21.0332 141.579 23.7899C141.788 24.5624 141.864 25.3646 141.806 26.1627C141.696 27.0216 141.826 27.8941 142.181 28.6838C142.415 29.0999 142.758 29.4442 143.173 29.6794C143.588 29.9147 144.06 30.0319 144.537 30.0186C144.965 29.9834 145.375 29.8313 145.723 29.5791C146.07 29.3268 146.342 28.9839 146.508 28.5879C147.381 26.6861 145.828 23.1705 144.38 21.4781C144.223 21.2774 144.057 21.103 143.891 20.9285C143.32 20.3901 142.876 19.7316 142.591 19.0005C142.389 18.322 142.3 17.6144 142.33 16.9069C142.35 16.3185 142.283 15.7304 142.129 15.1621C141.658 13.7227 140.245 12.9376 138.753 12.1089C137.731 11.6073 136.786 10.9641 135.944 10.1984C134.382 8.663 133.859 6.38612 133.597 4.80714L133.545 4.51926C133.475 3.71471 133.247 2.93193 132.873 2.21621C132.605 1.8004 132.237 1.45862 131.803 1.22233C131.368 0.986043 130.881 0.862833 130.387 0.86404H130.413Z" fill="#D5E6FB"/>
<path d="M10.2968 72.6162H6.85098V77.3793H10.2968V72.6162Z" fill="#323F4B"/>
<path d="M10.2881 77.833H6.85101C6.73533 77.833 6.62438 77.787 6.54258 77.7052C6.46078 77.6234 6.41483 77.5125 6.41483 77.3968V72.5988C6.41483 72.4831 6.46078 72.3722 6.54258 72.2904C6.62438 72.2086 6.73533 72.1626 6.85101 72.1626H10.2881C10.4038 72.1626 10.5148 72.2086 10.5966 72.2904C10.6784 72.3722 10.7243 72.4831 10.7243 72.5988V77.3706C10.7279 77.4301 10.7193 77.4896 10.6989 77.5456C10.6786 77.6016 10.6471 77.6528 10.6062 77.6961C10.5653 77.7394 10.516 77.7739 10.4613 77.7975C10.4066 77.821 10.3477 77.8331 10.2881 77.833ZM7.28719 76.9606H9.85195V73.0611H7.28719V76.9606Z" fill="#323F4B"/>
<path d="M10.8638 71.2816H6.27518V72.6251H10.8638V71.2816Z" fill="#ACCCF8"/>
<path d="M10.8638 73.0526H6.27517C6.15949 73.0526 6.04854 73.0066 5.96674 72.9248C5.88494 72.843 5.83899 72.7321 5.83899 72.6164V71.2816C5.83899 71.166 5.88494 71.055 5.96674 70.9732C6.04854 70.8914 6.15949 70.8455 6.27517 70.8455H10.8638C10.9795 70.8455 11.0905 70.8914 11.1723 70.9732C11.2541 71.055 11.3 71.166 11.3 71.2816V72.5989C11.3024 72.6577 11.2928 72.7163 11.2719 72.7712C11.2511 72.8262 11.2193 72.8763 11.1786 72.9187C11.1378 72.9611 11.089 72.9948 11.0349 73.0178C10.9808 73.0408 10.9226 73.0526 10.8638 73.0526ZM6.71136 72.1802H10.4189V71.7266H6.70263L6.71136 72.1802Z" fill="#323F4B"/>
<path d="M176.963 37.6171H131.032V92.5238H176.963V37.6171Z" fill="#ACCCF8"/>
<path d="M176.971 92.9597H131.032C130.917 92.9597 130.806 92.9137 130.724 92.8319C130.642 92.7501 130.596 92.6392 130.596 92.5235V37.6167C130.596 37.501 130.642 37.3901 130.724 37.3083C130.806 37.2265 130.917 37.1805 131.032 37.1805H176.971C177.087 37.1805 177.198 37.2265 177.28 37.3083C177.362 37.3901 177.407 37.501 177.407 37.6167V92.5235C177.407 92.6392 177.362 92.7501 177.28 92.8319C177.198 92.9137 177.087 92.9597 176.971 92.9597ZM131.469 92.0873H176.535V38.0529H131.469V92.0873Z" fill="#323F4B"/>
<path d="M73.8051 92.5236H26.9852V25.3862L73.8051 37.7826V92.5236Z" fill="#323F4B"/>
<path d="M73.8052 92.9597H26.994C26.8783 92.9597 26.7673 92.9137 26.6855 92.8319C26.6037 92.7501 26.5578 92.6392 26.5578 92.5235V25.3512C26.5548 25.2843 26.568 25.2176 26.5962 25.1568C26.6244 25.096 26.6668 25.0428 26.7198 25.0018C26.7728 24.9608 26.8348 24.9331 26.9008 24.921C26.9667 24.909 27.0346 24.9129 27.0986 24.9325L73.9273 37.3201C74.021 37.3453 74.1036 37.4011 74.162 37.4785C74.2205 37.5559 74.2515 37.6506 74.2501 37.7476V92.4886C74.255 92.5495 74.2471 92.6107 74.2268 92.6684C74.2065 92.726 74.1744 92.7787 74.1324 92.8231C74.0905 92.8675 74.0397 92.9026 73.9833 92.9262C73.9269 92.9497 73.8663 92.9611 73.8052 92.9597ZM27.4214 92.0873H73.369V38.114L27.4214 25.9532V92.0873Z" fill="#323F4B"/>
<path d="M83.5844 67.9929V49.9175L45.6451 67.7399V91.983H122.719V49.9175L83.5844 67.9929Z" fill="#ACCCF8"/>
<path d="M122.719 92.4103H45.6452C45.5295 92.4103 45.4185 92.3643 45.3367 92.2825C45.2549 92.2007 45.209 92.0898 45.209 91.9741V67.7397C45.2085 67.6568 45.2322 67.5755 45.2771 67.5058C45.3221 67.4361 45.3863 67.381 45.462 67.3471L83.3925 49.5247C83.4561 49.4879 83.5284 49.4686 83.6019 49.4686C83.6754 49.4686 83.7476 49.4879 83.8112 49.5247C83.8748 49.5624 83.9276 49.616 83.9643 49.6802C84.001 49.7445 84.0204 49.8171 84.0206 49.8911V67.2861L122.536 49.4985C122.6 49.4641 122.672 49.4462 122.745 49.4462C122.818 49.4462 122.89 49.4641 122.954 49.4985C123.017 49.5367 123.068 49.5906 123.104 49.6549C123.139 49.7192 123.157 49.7916 123.155 49.8649V91.9217C123.162 91.9832 123.157 92.0456 123.138 92.1048C123.12 92.1639 123.089 92.2184 123.047 92.2646C123.006 92.3108 122.955 92.3477 122.899 92.3728C122.842 92.3979 122.781 92.4107 122.719 92.4103ZM46.0814 91.5379H122.283V50.5977L83.7676 68.3853C83.7032 68.4196 83.6313 68.4376 83.5582 68.4376C83.4852 68.4376 83.4133 68.4196 83.3489 68.3853C83.2863 68.3471 83.2348 68.2932 83.1996 68.2289C83.1644 68.1646 83.1467 68.0922 83.1482 68.0189V50.6064L46.0814 68.0538V91.5379Z" fill="#323F4B"/>
<path d="M114.824 71.9443H91.549V91.843H114.824V71.9443Z" fill="#323F4B"/>
<path d="M114.824 92.2794H91.5491C91.4334 92.2794 91.3225 92.2334 91.2407 92.1516C91.1589 92.0698 91.1129 91.9589 91.1129 91.8432V71.9445C91.1129 71.8288 91.1589 71.7179 91.2407 71.6361C91.3225 71.5543 91.4334 71.5083 91.5491 71.5083H114.824C114.94 71.5083 115.051 71.5543 115.132 71.6361C115.214 71.7179 115.26 71.8288 115.26 71.9445V91.8432C115.26 91.9589 115.214 92.0698 115.132 92.1516C115.051 92.2334 114.94 92.2794 114.824 92.2794ZM91.9853 91.407H114.388V72.3807H91.9853V91.407Z" fill="#323F4B"/>
<path d="M115.138 27.1396H125.379L128.276 84.1663H112.242L115.138 27.1396Z" fill="#D5E6FB"/>
<path d="M125.667 23.1447H114.85C114.007 23.1447 113.323 23.8282 113.323 24.6713V25.6135C113.323 26.4566 114.007 27.1401 114.85 27.1401H125.667C126.51 27.1401 127.194 26.4566 127.194 25.6135V24.6713C127.194 23.8282 126.51 23.1447 125.667 23.1447Z" fill="#323F4B"/>
<path d="M125.667 27.5759H114.85C114.329 27.5759 113.83 27.3691 113.462 27.001C113.094 26.6329 112.887 26.1337 112.887 25.6131V24.6797C112.887 24.1583 113.094 23.6581 113.462 23.2887C113.829 22.9192 114.329 22.7104 114.85 22.7081H125.667C126.189 22.7104 126.688 22.9192 127.056 23.2887C127.424 23.6581 127.63 24.1583 127.63 24.6797V25.6131C127.63 26.1337 127.423 26.6329 127.055 27.001C126.687 27.3691 126.188 27.5759 125.667 27.5759ZM114.85 23.5805C114.56 23.5828 114.283 23.6996 114.078 23.9055C113.874 24.1114 113.76 24.3897 113.76 24.6797V25.6131C113.76 25.9023 113.874 26.1797 114.079 26.3842C114.283 26.5887 114.561 26.7036 114.85 26.7036H125.667C125.957 26.7036 126.234 26.5887 126.438 26.3842C126.643 26.1797 126.758 25.9023 126.758 25.6131V24.6797C126.758 24.3897 126.643 24.1114 126.439 23.9055C126.235 23.6996 125.957 23.5828 125.667 23.5805H114.85Z" fill="#323F4B"/>
<path d="M137.191 27.1396H147.433L150.329 84.1663H134.295L137.191 27.1396Z" fill="#D5E6FB"/>
<path d="M147.721 23.1447H136.903C136.06 23.1447 135.377 23.8282 135.377 24.6713V25.6135C135.377 26.4566 136.06 27.1401 136.903 27.1401H147.721C148.564 27.1401 149.247 26.4566 149.247 25.6135V24.6713C149.247 23.8282 148.564 23.1447 147.721 23.1447Z" fill="#323F4B"/>
<path d="M147.721 27.5759H136.912C136.392 27.5759 135.892 27.3691 135.524 27.001C135.156 26.6329 134.949 26.1337 134.949 25.6131V24.6797C134.949 24.1583 135.156 23.6581 135.524 23.2887C135.892 22.9192 136.391 22.7104 136.912 22.7081H147.73C148.251 22.7104 148.75 22.9192 149.118 23.2887C149.486 23.6581 149.692 24.1583 149.692 24.6797V25.6131C149.692 25.8716 149.641 26.1276 149.542 26.3663C149.443 26.605 149.298 26.8218 149.114 27.0041C148.931 27.1865 148.714 27.3309 148.475 27.429C148.235 27.5272 147.979 27.5771 147.721 27.5759ZM136.912 23.5805C136.622 23.5828 136.345 23.6996 136.141 23.9055C135.936 24.1114 135.822 24.3897 135.822 24.6797V25.6131C135.822 25.9023 135.937 26.1797 136.141 26.3842C136.346 26.5887 136.623 26.7036 136.912 26.7036H147.73C148.019 26.7036 148.296 26.5887 148.501 26.3842C148.705 26.1797 148.82 25.9023 148.82 25.6131V24.6797C148.82 24.3897 148.705 24.1114 148.501 23.9055C148.297 23.6996 148.02 23.5828 147.73 23.5805H136.912Z" fill="#323F4B"/>
<path d="M105.123 84.1664H156.026L159.681 91.9828H101.468L105.123 84.1664Z" fill="#ACCCF8"/>
<path d="M159.681 92.4103H101.468C101.395 92.4118 101.322 92.3941 101.258 92.3589C101.194 92.3237 101.14 92.2722 101.102 92.2096C101.067 92.1452 101.049 92.0733 101.049 92.0003C101.049 91.9273 101.067 91.8553 101.102 91.7909L104.757 83.9832C104.791 83.9075 104.846 83.8433 104.915 83.7984C104.985 83.7535 105.066 83.7298 105.149 83.7302H156.052C156.136 83.7302 156.218 83.754 156.289 83.7988C156.36 83.8436 156.417 83.9075 156.453 83.9832L160.1 91.7909C160.138 91.8539 160.159 91.9264 160.159 92.0003C160.159 92.0742 160.138 92.1466 160.1 92.2096C160.057 92.2807 159.995 92.3376 159.921 92.3733C159.846 92.409 159.763 92.4219 159.681 92.4103ZM102.157 91.5379H159.001L155.747 84.559H105.402L102.157 91.5379Z" fill="#323F4B"/>
<path d="M0.875247 92.3054C0.875247 92.3578 0.875247 92.4101 0.875247 92.4625C0.874463 95.7558 1.05503 99.0467 1.41612 102.32C1.43335 102.704 1.47708 103.086 1.54697 103.463C2.22949 109.111 3.44756 114.682 5.18474 120.099L5.70816 121.661C5.90008 122.228 6.10072 122.795 6.29265 123.353C6.48457 123.911 6.65032 124.286 6.82479 124.749C6.99926 125.211 7.19991 125.735 7.3831 126.214C7.42337 126.287 7.45836 126.363 7.48779 126.441C7.77567 127.183 8.09845 127.924 8.4125 128.648C8.5608 129.006 8.71783 129.355 8.87486 129.704L9.45062 130.934C9.64835 131.37 9.85772 131.806 10.0787 132.242C10.7068 133.545 11.3698 134.825 12.0677 136.081C12.2655 136.453 12.4748 136.828 12.6958 137.206C12.8703 137.511 13.036 137.826 13.2192 138.122C13.638 138.846 14.0916 139.562 14.5191 140.277C14.7633 140.678 15.0076 141.071 15.2693 141.463C15.531 141.856 15.9236 142.475 16.2638 142.972C17.8628 145.366 19.5806 147.678 21.4108 149.899L22.1087 150.771L22.6844 151.461L23.4696 152.333C24.1849 153.153 24.9177 153.947 25.6592 154.732L26.7758 155.892L27.8576 156.983L29.0702 158.16C29.5761 158.64 30.0908 159.12 30.6142 159.591C31.1377 160.062 31.5651 160.463 32.0624 160.882C32.5596 161.301 33.275 161.92 33.8943 162.435C46.4906 172.805 61.6501 179.586 77.7765 182.065C93.9029 184.543 110.399 182.627 125.528 176.518C140.657 170.409 153.859 160.334 163.742 147.353C173.626 134.372 179.827 118.965 181.691 102.756C181.787 101.884 181.865 101.012 181.944 100.183C181.979 99.8339 182.005 99.485 182.022 99.1361C182.018 99.0693 182.018 99.0022 182.022 98.9354C182.063 98.3538 182.098 97.7868 182.127 97.2343C182.179 96.3009 182.214 95.3587 182.223 94.4165C182.223 93.771 182.223 93.1167 182.223 92.4625C182.227 92.4102 182.227 92.3577 182.223 92.3054H0.875247Z" fill="#1F2933"/>
<path d="M182.214 92.3056C182.218 92.3579 182.218 92.4104 182.214 92.4626C182.214 93.1169 182.214 93.7712 182.214 94.4167C182.214 95.3589 182.171 96.301 182.118 97.2345C182.118 97.8161 182.083 98.3831 182.014 98.9356C182.009 99.0024 182.009 99.0694 182.014 99.1362C182.014 99.4852 181.987 99.8341 181.935 100.183C181.857 101.055 181.778 101.928 181.682 102.757C179.824 118.972 173.626 134.385 163.742 147.373C153.857 160.36 140.652 170.441 125.519 176.553C110.385 182.664 93.8828 184.58 77.7514 182.099C61.6199 179.617 46.4566 172.83 33.8595 162.453C33.2401 161.938 32.6207 161.423 32.0275 160.9C31.4343 160.376 31.0592 160.027 30.5794 159.609C30.0996 159.19 29.5412 158.658 29.0353 158.178L27.8663 156.983L26.7846 155.892L25.6679 154.732C24.9264 153.947 24.1936 153.153 23.4783 152.333L22.6932 151.461L22.1174 150.772L21.4195 149.899C19.5894 147.678 17.8716 145.366 16.2725 142.973C15.9323 142.475 15.6008 141.969 15.278 141.463C14.9553 140.958 14.7721 140.678 14.5278 140.277C14.0829 139.562 13.6554 138.846 13.228 138.122C13.0448 137.826 12.879 137.512 12.7046 137.206C12.5301 136.901 12.2771 136.456 12.0765 136.081C11.3786 134.825 10.7156 133.545 10.0875 132.243C9.87227 131.806 9.6629 131.37 9.45935 130.934L8.88359 129.704C8.72656 129.355 8.56954 129.006 8.42123 128.648C8.10718 127.924 7.78441 127.183 7.49653 126.441C7.4671 126.363 7.43211 126.288 7.39184 126.215C7.20864 125.735 7.01672 125.246 6.83353 124.749C6.65033 124.252 6.47585 123.824 6.30138 123.353C6.12691 122.882 5.90882 122.228 5.7169 121.661L5.19348 120.099C3.46517 114.681 2.25587 109.11 1.58188 103.463C1.51198 103.086 1.46826 102.704 1.45102 102.32C1.08993 99.0469 0.909369 95.756 0.910152 92.4626C0.910152 92.4103 0.910152 92.3579 0.910152 92.3056H182.214ZM182.214 91.4332H0.875257C0.654092 91.4327 0.440978 91.5162 0.279025 91.6668C0.117072 91.8174 0.0183708 92.0239 0.0028899 92.2445C-0.000963299 92.3172 -0.000963299 92.39 0.0028899 92.4626C0.00331717 95.7879 0.183873 99.1106 0.54376 102.416C0.569759 102.814 0.616344 103.21 0.683335 103.603C1.3555 109.295 2.57072 114.909 4.31239 120.37C4.47814 120.893 4.66133 121.425 4.8358 121.94C5.01028 122.455 5.22837 123.083 5.42901 123.685C5.62966 124.287 5.76924 124.557 5.92626 125.011V125.098C6.10946 125.595 6.30138 126.092 6.50203 126.572C6.50203 126.668 6.57182 126.729 6.58926 126.782C6.8597 127.471 7.1563 128.177 7.53142 129.032C7.671 129.372 7.82802 129.73 8.01122 130.114C8.19442 130.498 8.38634 130.934 8.57826 131.344C8.77018 131.754 8.997 132.216 9.21509 132.67C9.85192 133.987 10.5324 135.287 11.2215 136.543C11.4222 136.91 11.6315 137.294 11.8584 137.677L11.963 137.869C12.1113 138.122 12.2509 138.375 12.3992 138.62C12.8354 139.379 13.2716 140.137 13.6991 140.774L13.891 141.088L14.4493 141.961C14.807 142.528 15.1385 143.025 15.4612 143.496C17.0664 145.886 18.8198 148.242 20.6954 150.475L21.4021 151.347C21.5853 151.574 21.7859 151.801 21.9778 152.028C22.1697 152.255 22.5187 152.665 22.7978 152.97C23.5132 153.79 24.2372 154.584 24.9962 155.378C25.3626 155.77 25.7377 156.163 26.1216 156.547C26.5054 156.931 26.8456 157.297 27.2207 157.655C27.5959 158.012 28.0233 158.448 28.4246 158.832L28.8085 159.19L29.9949 160.289C30.4747 160.725 30.9545 161.162 31.4517 161.58C31.949 161.999 32.673 162.636 33.3011 163.151C46.019 173.609 61.3207 180.446 77.5961 182.941C93.8715 185.437 110.519 183.5 125.786 177.333C141.053 171.166 154.376 160.998 164.352 147.899C174.329 134.8 180.589 119.253 182.476 102.896C182.589 101.919 182.668 101.09 182.729 100.279C182.729 99.9388 182.79 99.5811 182.816 99.2322V99.1624C182.82 99.1364 182.82 99.1099 182.816 99.0839C182.82 99.0667 182.82 99.0488 182.816 99.0316C182.86 98.4558 182.886 97.88 182.912 97.2868C182.964 96.3534 182.999 95.3938 183.017 94.4429C183.017 93.7973 183.017 93.1343 183.017 92.4713C183.021 92.39 183.021 92.3085 183.017 92.2271C182.995 92.0112 182.894 91.8111 182.732 91.6659C182.571 91.5207 182.361 91.4409 182.144 91.442L182.214 91.4332Z" fill="#323F4B"/>
<path d="M143.891 94.6959C143.397 94.3947 143.031 93.923 142.862 93.3699C142.757 93.0244 142.699 92.6665 142.687 92.3056H141.71C141.346 92.6966 141.036 93.1336 140.786 93.6055C140.096 94.9925 138.971 94.1463 138.046 94.3208C137.95 93.745 137.863 93.1693 137.741 92.5761C137.741 92.4801 137.741 92.3929 137.689 92.2882H136.816L136.729 92.5063L136.624 92.2882H122.579C122.876 92.9338 123.172 93.588 123.452 94.2336C123.914 95.2979 124.324 96.3709 124.751 97.4526C125.048 98.2378 125.17 99.0927 125.528 99.8255C126 100.674 126.527 101.49 127.107 102.268C127.638 103.056 128.036 103.925 128.284 104.842C128.664 106.57 128.956 108.317 129.157 110.076C129.323 111.018 129.724 111.367 130.588 110.948C132.142 110.23 133.653 109.423 135.115 108.532C136.659 107.528 137.959 106.141 139.555 105.217C140.312 104.783 141.044 104.305 141.745 103.786C142.357 103.315 142.901 102.76 143.359 102.137C143.621 101.753 143.83 101.326 144.083 100.925C144.297 100.491 144.558 100.081 144.859 99.7033C146.683 97.662 146.316 95.8911 143.891 94.6959Z" fill="#D5E6FB"/>
<path d="M144.659 92.3054C145.145 92.4222 145.642 92.4894 146.142 92.5061C148.392 92.6457 150.661 92.5061 152.676 92.5061C153.949 93.9542 155.162 95.35 156.375 96.7196L155.319 97.1558L157.753 99.2669L159.009 97.7403C159.227 98.8918 159.428 100.122 159.646 101.387C159.986 103.463 160.388 105.661 160.937 107.807C161.698 111.322 162.811 114.75 164.261 118.04C166.372 115.563 167.422 112.353 167.183 109.107C167.065 108.309 167.171 107.494 167.489 106.752C168.265 105.6 169.556 104.78 170.306 103.611C171.467 101.797 173.743 100.863 174.188 98.4905C174.258 98.1939 174.904 97.8973 175.331 97.7926C176.509 97.4786 177.721 97.2779 178.951 97.0162C179.107 97.928 179.401 98.8106 179.824 99.6333C180.562 100.594 181.177 101.643 181.656 102.756C181.752 101.884 181.83 101.012 181.909 100.183C181.944 99.8339 181.97 99.485 181.987 99.1361C181.983 99.0693 181.983 99.0022 181.987 98.9354C182.028 98.3538 182.063 97.7868 182.092 97.2343C182.144 96.3009 182.179 95.3587 182.188 94.4165C182.188 93.771 182.188 93.1167 182.188 92.4625C182.192 92.4102 182.192 92.3577 182.188 92.3054H144.659Z" fill="#D5E6FB"/>
<path d="M33.8508 162.453C34.1297 161.879 34.3097 161.263 34.3829 160.629C34.4876 159.094 34.9936 158.065 36.2673 157.48C37.759 156.8 39.3467 156.346 40.8821 155.735C41.2418 155.643 41.5627 155.438 41.7981 155.151C42.5868 153.9 43.214 152.555 43.6649 151.147C44.0112 149.182 44.2385 147.198 44.3454 145.206C44.3318 144.989 44.377 144.772 44.4762 144.578C45.2614 143.557 46.1599 142.615 46.8665 141.533C47.5731 140.452 48.7247 139.038 48.8032 137.739C48.8491 137.359 48.8168 136.975 48.7081 136.609C48.5995 136.242 48.4168 135.903 48.1715 135.61C47.9262 135.317 47.6234 135.078 47.2819 134.907C46.9404 134.736 46.5674 134.637 46.1861 134.615C45.9208 134.542 45.6933 134.37 45.5493 134.136C43.8045 131.745 41.1874 132.278 38.7361 132.234C38.9454 131.204 38.422 130.873 37.3577 130.629C34.8628 130.053 32.865 128.884 32.1235 126.066C31.3646 123.091 29.899 122.254 26.8021 122.088C25.8659 121.898 24.9928 121.475 24.2635 120.858C23.6703 120.378 23.1293 119.838 22.6496 119.244C22.4123 118.927 22.1434 118.635 21.847 118.372C20.9747 117.779 20.364 116.514 19.2299 116.758C18.0958 117.002 16.8047 117.325 15.5922 116.758C14.3796 116.191 13.4025 115.729 12.1027 115.109C11.7799 115.982 11.3525 117.168 10.8988 118.424C10.0265 117.124 10.8988 115.851 11.0995 114.499C8.69173 115.99 5.86526 116.837 5.34184 120.134L5.18481 120.038C10.4705 136.635 20.4221 151.359 33.8508 162.453Z" fill="#D5E6FB"/>
<path d="M129.593 116.348C129.244 115.746 129.288 114.865 128.869 114.35C128.084 113.4 127.046 112.658 126.182 111.733C125.687 111.273 125.297 110.71 125.039 110.085C124.333 107.921 122.719 106.203 122.466 103.751C122.309 102.242 120.913 100.89 120.224 99.3893C119.354 97.5343 118.588 95.6325 117.929 93.6927C117.458 92.2708 116.656 92.3929 115.522 92.6983C114.68 92.9834 113.779 93.0495 112.905 92.8902C112.233 92.7157 111.57 92.5063 110.907 92.2708H105.245C105.202 92.4189 105.173 92.5708 105.158 92.7244C105.062 93.7974 104.6 94.3819 103.579 93.5968C102.707 92.9512 101.32 93.0995 100.587 92.2446H74.599C74.5037 92.5553 74.4595 92.8794 74.4682 93.2042C74.4682 95.2019 73.4126 95.8998 71.8511 96.3884C71.4449 96.5007 71.0884 96.7466 70.8391 97.0863C69.9057 98.6042 68.9722 100.131 68.222 101.727C67.655 102.844 66.6256 103.795 67.6637 105.435C68.1919 106.643 68.2325 108.009 67.7771 109.247C67.3042 110.871 67.1647 112.575 67.3671 114.254C67.3671 114.612 67.7509 114.97 68.0039 115.284C68.2569 115.598 68.6058 115.746 68.8152 116.034C69.6713 117.471 70.6214 118.849 71.6591 120.16C72.8494 121.292 74.108 122.35 75.4278 123.327C75.7716 123.628 76.1951 123.822 76.6472 123.887C77.0992 123.952 77.5605 123.885 77.9751 123.693C79.329 123.43 80.7047 123.296 82.0839 123.292C82.6144 123.271 83.1409 123.192 83.6542 123.057C84.7031 122.616 85.7747 122.232 86.8645 121.905C87.955 121.678 89.4816 120.989 89.9527 122.629C90.415 124.112 91.2525 124.06 92.4389 123.946C92.7501 123.914 93.0646 123.952 93.3591 124.058C93.6536 124.164 93.9205 124.334 94.14 124.557C94.5716 125.261 94.7269 126.1 94.5762 126.912C93.8609 129.32 93.8434 131.335 95.815 133.351C96.6413 134.236 97.2743 135.283 97.6738 136.426C98.0733 137.569 98.2306 138.782 98.1355 139.989C98.1112 140.319 98.1972 140.647 98.3797 140.923C99.1736 142.004 98.6938 142.781 98.1616 143.871C96.984 146.279 95.8673 148.748 97.5161 151.566C98.5019 153.241 99.5749 154.898 99.6447 157.105C99.6031 159.208 100.346 161.252 101.73 162.837C102.602 163.779 103.474 165.323 103.361 166.483C103.255 167.079 103.348 167.693 103.625 168.23C103.903 168.768 104.349 169.199 104.896 169.458C105.399 169.244 105.918 169.072 106.449 168.943C107.945 168.905 109.435 168.751 110.907 168.481C114.606 167.416 116.412 164.25 118.287 161.266C118.636 160.717 118.418 159.809 118.479 158.754C118.697 158.632 119.194 158.318 119.727 158.065C120.05 157.961 120.347 157.791 120.601 157.565C120.854 157.34 121.058 157.064 121.198 156.755C121.339 156.446 121.413 156.111 121.417 155.772C121.42 155.433 121.353 155.096 121.218 154.785C121.053 154.209 120.782 153.659 120.643 153.04C120.564 152.717 120.512 152.168 120.695 152.037C121.925 150.911 123.26 149.899 124.472 148.757C125.266 148.015 126.304 147.186 126.496 146.244C126.691 144.79 126.62 143.312 126.287 141.882C126.121 140.905 125.484 140.015 125.301 139.047C125.118 138.079 125.824 136.753 124.69 135.811C124.551 135.697 124.621 135.113 124.778 134.886C126.618 132.347 128.101 129.346 130.465 127.436C133.588 124.906 135.141 121.574 136.86 118.25C137.213 117.24 137.421 116.186 137.479 115.118C135.106 115.729 132.987 116.313 130.849 116.784C130.62 116.819 130.386 116.798 130.167 116.722C129.948 116.646 129.751 116.518 129.593 116.348Z" fill="#D5E6FB"/>
<path d="M129.593 153.729C129.009 154.967 129.174 157.34 130.169 158.195C130.395 158.395 130.667 158.537 130.96 158.608C131.254 158.679 131.56 158.677 131.853 158.602C132.146 158.527 132.415 158.382 132.639 158.179C132.862 157.975 133.033 157.72 133.135 157.436C134.077 154.313 134.88 151.164 135.752 148.023C135.813 147.779 135.752 147.483 135.909 147.291C136.292 146.72 136.452 146.028 136.361 145.347C136.269 144.666 135.932 144.042 135.412 143.592C133.58 144.953 133.397 147.954 130.116 147.805C130.116 148.87 130.178 149.855 130.116 150.832C130.109 151.821 129.932 152.8 129.593 153.729Z" fill="#D5E6FB"/>
<path d="M2.08791 102.573C1.8684 102.463 1.63723 102.378 1.39874 102.32L1.52959 103.472C2.18466 103.697 2.82306 103.968 3.44008 104.283C4.08563 104.606 4.4782 105.417 5.18481 106.193L8.18576 105.853C5.96994 104.667 4.05946 103.55 2.08791 102.573Z" fill="#D5E6FB"/>
<path d="M13.9084 108.078C14.0393 106.612 11.4135 105.688 9.04935 106.333L10.3056 107.773L7.83676 107.546C9.76469 108.907 11.8758 107.903 13.9084 108.078Z" fill="#D5E6FB"/>
<path d="M167.986 122.053C168.457 121.87 169.094 120.963 168.98 120.631C168.512 119.596 167.955 118.604 167.314 117.665L166.817 117.892C166.817 118.895 166.817 119.898 166.817 120.893C166.817 121.887 167.087 122.411 167.986 122.053Z" fill="#D5E6FB"/>
<path d="M22.0564 79.8745H5.7431V91.9742H22.0564V79.8745Z" fill="#323F4B"/>
<path d="M22.0564 92.41H5.74313C5.62745 92.41 5.5165 92.364 5.4347 92.2822C5.3529 92.2004 5.30695 92.0895 5.30695 91.9738V79.874C5.30695 79.7584 5.3529 79.6474 5.4347 79.5656C5.5165 79.4838 5.62745 79.4379 5.74313 79.4379H22.0564C22.1721 79.4379 22.283 79.4838 22.3648 79.5656C22.4466 79.6474 22.4926 79.7584 22.4926 79.874V91.9738C22.4926 92.0895 22.4466 92.2004 22.3648 92.2822C22.283 92.364 22.1721 92.41 22.0564 92.41ZM6.17931 91.5376H21.6202V80.3102H6.17931V91.5376Z" fill="#323F4B"/>
<path d="M13.8997 71.3861L2.63745 80.6855H25.1707L13.8997 71.3861Z" fill="#D5E6FB"/>
<path d="M13.385 82.1163H8.83997V91.9828H13.385V82.1163Z" fill="#ACCCF8"/>
<path d="M13.385 92.4102H8.83993C8.72425 92.4102 8.6133 92.3642 8.5315 92.2824C8.4497 92.2006 8.40375 92.0897 8.40375 91.974V82.1162C8.40375 82.0006 8.4497 81.8896 8.5315 81.8078C8.6133 81.726 8.72425 81.6801 8.83993 81.6801H13.385C13.5006 81.6801 13.6116 81.726 13.6934 81.8078C13.7752 81.8896 13.8211 82.0006 13.8211 82.1162V91.974C13.8211 92.0897 13.7752 92.2006 13.6934 92.2824C13.6116 92.3642 13.5006 92.4102 13.385 92.4102ZM9.27611 91.5378H12.9488V82.5524H9.27611V91.5378Z" fill="#323F4B"/>
<path d="M19.6399 83.2242H16.2027V86.6614H19.6399V83.2242Z" fill="#ACCCF8"/>
<path d="M19.6486 87.0975H16.1591C16.0441 87.0952 15.9345 87.0486 15.8532 86.9672C15.7718 86.8859 15.7252 86.7763 15.7229 86.6613V83.2241C15.7229 83.1085 15.7689 82.9975 15.8507 82.9157C15.9325 82.8339 16.0434 82.788 16.1591 82.788H19.6486C19.7643 82.788 19.8752 82.8339 19.957 82.9157C20.0388 82.9975 20.0848 83.1085 20.0848 83.2241V86.6613C20.0825 86.7763 20.0359 86.8859 19.9545 86.9672C19.8732 87.0486 19.7636 87.0952 19.6486 87.0975ZM16.6389 86.2251H19.256V83.6603H16.6389V86.2251Z" fill="#323F4B"/>
<path d="M169.923 92.4101C169.811 92.4103 169.704 92.368 169.623 92.2917C169.542 92.2155 169.493 92.1112 169.486 92.0001C169.486 91.8605 168.797 77.8329 166.442 74.2038C164.086 70.5748 161.408 66.7276 161.382 66.684C161.323 66.5891 161.303 66.4751 161.326 66.3657C161.348 66.2562 161.412 66.1596 161.504 66.0958C161.596 66.0321 161.708 66.0059 161.819 66.0229C161.929 66.0398 162.029 66.0984 162.097 66.1868C162.097 66.1868 164.715 69.999 167.175 73.7327C169.635 77.4665 170.333 91.372 170.359 91.9565C170.362 92.0133 170.354 92.0703 170.336 92.1241C170.317 92.1779 170.287 92.2274 170.249 92.2696C170.211 92.3119 170.165 92.3461 170.113 92.3702C170.062 92.3943 170.006 92.4079 169.949 92.4101H169.923Z" fill="#323F4B"/>
<path d="M166.808 74.4046C166.709 74.4051 166.612 74.3716 166.535 74.3097C166.457 74.2479 166.403 74.1613 166.381 74.0644C165.603 70.2713 165.603 66.3598 166.381 62.5666C166.41 62.4539 166.482 62.357 166.581 62.2967C166.68 62.2364 166.8 62.2174 166.913 62.2438C166.969 62.2581 167.021 62.2831 167.067 62.3176C167.113 62.3521 167.151 62.3953 167.18 62.4447C167.21 62.4941 167.229 62.5489 167.237 62.6057C167.245 62.6626 167.241 62.7204 167.227 62.776C166.49 66.4381 166.49 70.2104 167.227 73.8725C167.24 73.9286 167.241 73.9868 167.232 74.0436C167.222 74.1003 167.201 74.1546 167.17 74.2033C167.139 74.2519 167.099 74.294 167.052 74.3271C167.005 74.3602 166.952 74.3835 166.895 74.3959L166.808 74.4046Z" fill="#323F4B"/>
<path d="M166.512 68.7603C166.435 68.7564 166.361 68.7355 166.294 68.6993C166.194 68.6393 166.122 68.5428 166.092 68.4303C166.063 68.3178 166.079 68.1983 166.137 68.0973C166.224 67.9577 168.152 64.7213 169.696 63.7355C169.795 63.6753 169.915 63.6572 170.027 63.685C170.14 63.7128 170.238 63.7843 170.298 63.8838C170.358 63.9833 170.376 64.1026 170.348 64.2155C170.32 64.3283 170.249 64.4256 170.149 64.4857C169.024 65.1749 167.41 67.6262 166.887 68.5073C166.853 68.5798 166.801 68.6417 166.735 68.6863C166.668 68.7309 166.591 68.7565 166.512 68.7603Z" fill="#323F4B"/>
<path d="M168.222 77.8329H168.108C167.997 77.8022 167.902 77.7295 167.844 77.6303C167.785 77.531 167.767 77.4129 167.794 77.3008C168.595 74.3831 169.922 71.6365 171.711 69.1965C171.785 69.1061 171.891 69.0481 172.006 69.035C172.122 69.022 172.239 69.0549 172.33 69.1267C172.375 69.1623 172.412 69.2065 172.44 69.2567C172.467 69.3069 172.484 69.3622 172.49 69.4191C172.496 69.4761 172.49 69.5336 172.473 69.5883C172.456 69.6429 172.428 69.6936 172.391 69.7374C170.69 72.0884 169.42 74.7233 168.64 77.5189C168.614 77.6095 168.559 77.6891 168.483 77.7457C168.408 77.8023 168.316 77.8329 168.222 77.8329Z" fill="#323F4B"/>
<path d="M163.45 69.9031C163.395 69.916 163.338 69.916 163.284 69.9031C162.56 69.6065 160.457 68.9173 159.445 69.3273C159.393 69.35 159.336 69.3619 159.279 69.3623C159.222 69.3627 159.165 69.3516 159.112 69.3296C159.059 69.3076 159.011 69.2753 158.971 69.2344C158.931 69.1935 158.899 69.145 158.878 69.0918C158.837 68.9851 158.839 68.8667 158.883 68.7611C158.927 68.6555 159.009 68.5709 159.114 68.5247C160.632 67.9053 163.31 68.9696 163.615 69.1005C163.669 69.1215 163.717 69.153 163.758 69.1932C163.799 69.2333 163.831 69.2812 163.853 69.3341C163.875 69.387 163.886 69.4438 163.886 69.5011C163.885 69.5583 163.874 69.6149 163.851 69.6675C163.812 69.74 163.754 69.8004 163.683 69.8419C163.613 69.8835 163.532 69.9047 163.45 69.9031Z" fill="#323F4B"/>
<path d="M165.918 92.2793C165.814 92.2789 165.714 92.242 165.634 92.1751C165.554 92.1081 165.5 92.0154 165.482 91.9129C165.334 90.8661 164.697 87.996 163.598 87.333C163.464 87.2308 163.31 87.1585 163.146 87.1209C162.982 87.0833 162.812 87.0812 162.647 87.1149C162.42 87.2092 162.239 87.3874 162.141 87.6122C162.12 87.6654 162.088 87.714 162.048 87.7551C162.008 87.7962 161.961 87.8291 161.908 87.8517C161.855 87.8744 161.799 87.8865 161.741 87.8873C161.684 87.8881 161.627 87.8776 161.574 87.8564C161.521 87.8352 161.472 87.8038 161.431 87.7638C161.39 87.7238 161.357 87.6762 161.334 87.6235C161.312 87.5708 161.3 87.5142 161.299 87.4569C161.298 87.3996 161.308 87.3427 161.33 87.2894C161.426 87.0619 161.568 86.8565 161.747 86.6855C161.925 86.5146 162.136 86.3816 162.368 86.2949C162.651 86.213 162.948 86.1964 163.238 86.2463C163.528 86.2961 163.803 86.4112 164.043 86.5828C165.7 87.586 166.285 91.3546 166.354 91.817C166.369 91.9325 166.339 92.0492 166.268 92.1422C166.198 92.2352 166.095 92.2969 165.979 92.3142L165.918 92.2793Z" fill="#323F4B"/>
<path d="M165.823 91.7382C165.708 91.7382 165.599 91.6935 165.517 91.6135C165.436 91.5336 165.389 91.4249 165.386 91.3107C165.325 86.6785 166.154 86.5389 166.433 86.4953C166.533 86.478 166.635 86.4823 166.733 86.5079C166.831 86.5334 166.922 86.5797 167 86.6436C167.672 87.1408 167.969 89.0077 168.038 89.5747C168.046 89.632 168.042 89.6902 168.027 89.746C168.012 89.8017 167.986 89.854 167.951 89.8998C167.915 89.9455 167.872 89.9839 167.821 90.0127C167.771 90.0415 167.716 90.0602 167.659 90.0676C167.602 90.0751 167.543 90.0712 167.488 90.0561C167.432 90.0411 167.38 90.0152 167.334 89.98C167.288 89.9447 167.25 89.9008 167.221 89.8507C167.192 89.8007 167.173 89.7454 167.166 89.6881C167.086 88.9239 166.889 88.1765 166.581 87.4723C166.303 88.7287 166.191 90.0164 166.25 91.302C166.251 91.3589 166.241 91.4154 166.22 91.4683C166.199 91.5211 166.168 91.5693 166.128 91.6099C166.088 91.6506 166.041 91.6828 165.988 91.7048C165.936 91.7269 165.879 91.7382 165.823 91.7382Z" fill="#323F4B"/>
<path d="M40.7861 38.7598H36.3632V43.8369H40.7861V38.7598Z" fill="#ACCCF8"/>
<path d="M56.9945 42.5284H52.5717V47.6056H56.9945V42.5284Z" fill="#ACCCF8"/>
<path d="M170.141 41.2983H165.718V46.3755H170.141V41.2983Z" fill="#323F4B"/>
<path d="M170.141 46.8116H165.7C165.585 46.8116 165.474 46.7656 165.392 46.6838C165.31 46.602 165.264 46.4911 165.264 46.3754V41.2982C165.264 41.1826 165.31 41.0716 165.392 40.9898C165.474 40.908 165.585 40.8621 165.7 40.8621H170.123C170.238 40.8643 170.348 40.911 170.429 40.9923C170.51 41.0736 170.557 41.1833 170.559 41.2982V46.3754C170.559 46.4881 170.516 46.5965 170.438 46.6778C170.36 46.7592 170.253 46.8071 170.141 46.8116ZM166.154 45.9392H169.704V41.7344H166.154V45.9392Z" fill="#323F4B"/>
<path d="M158.817 47.3787H154.394V52.4558H158.817V47.3787Z" fill="#323F4B"/>
<path d="M158.809 52.8921H154.36C154.244 52.8921 154.133 52.8461 154.051 52.7643C153.969 52.6825 153.923 52.5716 153.923 52.4559V47.3787C153.923 47.263 153.969 47.1521 154.051 47.0703C154.133 46.9885 154.244 46.9425 154.36 46.9425H158.774C158.889 46.9425 159 46.9885 159.082 47.0703C159.164 47.1521 159.21 47.263 159.21 47.3787V52.4559C159.21 52.5658 159.169 52.6717 159.095 52.7526C159.02 52.8335 158.918 52.8833 158.809 52.8921ZM154.831 52.0197H158.372V47.8149H154.831V52.0197Z" fill="#323F4B"/>
<path d="M169.818 51.9849H165.395V57.062H169.818V51.9849Z" fill="#323F4B"/>
<path d="M169.818 57.4982H165.395C165.28 57.496 165.17 57.4493 165.089 57.368C165.008 57.2867 164.961 57.177 164.959 57.0621V51.9849C164.959 51.8692 165.005 51.7583 165.087 51.6765C165.168 51.5947 165.279 51.5487 165.395 51.5487H169.818C169.934 51.5487 170.045 51.5947 170.126 51.6765C170.208 51.7583 170.254 51.8692 170.254 51.9849V57.0621C170.254 57.1777 170.208 57.2887 170.126 57.3705C170.045 57.4523 169.934 57.4982 169.818 57.4982ZM165.831 56.6259H169.382V52.4211H165.831V56.6259Z" fill="#323F4B"/>
<path d="M45.9679 52.6042H41.545V57.6814H45.9679V52.6042Z" fill="#ACCCF8"/>
<path d="M82.555 86.7573C82.2147 87.4988 81.7611 88.6677 80.121 88.6677C78.481 88.6677 39.2245 88.9382 38.0381 88.6677C37.6722 88.5588 37.3386 88.3618 37.0664 88.0942C36.7942 87.8266 36.5917 87.4963 36.4765 87.1324C36.4765 87.1324 36.3021 84.62 36.3806 83.6429C36.3806 83.6429 36.3806 83.5469 36.3806 83.512C36.4118 83.2651 36.4997 83.0287 36.6374 82.8214C36.7751 82.6141 36.9589 82.4414 37.1744 82.3169C37.0785 81.6181 37.1351 80.9068 37.3402 80.232C37.6804 79.4381 41.8678 75.9399 41.8678 75.9399C41.8678 75.9399 40.9954 75.7044 40.7948 75.2944C40.5941 74.8843 58.4253 73.9073 61.592 74.5441C64.7587 75.1809 72.4966 80.6943 72.4966 80.6943C72.4966 80.6943 80.5572 80.7903 81.4034 81.5667C82.2496 82.3431 82.8952 86.0157 82.555 86.7573Z" fill="#D5E6FB"/>
<path d="M45.3311 91.5378C47.0945 91.5378 48.524 90.1083 48.524 88.345C48.524 86.5816 47.0945 85.1521 45.3311 85.1521C43.5677 85.1521 42.1382 86.5816 42.1382 88.345C42.1382 90.1083 43.5677 91.5378 45.3311 91.5378Z" fill="#323F4B"/>
<path d="M45.3311 89.9238C46.2031 89.9238 46.9101 89.2169 46.9101 88.3449C46.9101 87.4728 46.2031 86.7659 45.3311 86.7659C44.459 86.7659 43.7521 87.4728 43.7521 88.3449C43.7521 89.2169 44.459 89.9238 45.3311 89.9238Z" fill="#ACCCF8"/>
<path d="M45.3136 90.3604C44.9129 90.3604 44.5213 90.2415 44.1883 90.0187C43.8553 89.7959 43.5959 89.4793 43.4429 89.109C43.29 88.7387 43.2505 88.3313 43.3293 87.9384C43.4081 87.5456 43.6017 87.185 43.8856 86.9023C44.1695 86.6196 44.531 86.4276 44.9241 86.3505C45.3173 86.2733 45.7245 86.3147 46.0942 86.4692C46.4638 86.6237 46.7793 86.8845 47.0007 87.2185C47.222 87.5524 47.3392 87.9446 47.3375 88.3452C47.3352 88.8805 47.1209 89.393 46.7416 89.7707C46.3623 90.1484 45.8489 90.3604 45.3136 90.3604ZM45.3136 87.1937C45.0859 87.1937 44.8632 87.2612 44.6739 87.3878C44.4845 87.5143 44.3369 87.6942 44.2497 87.9046C44.1626 88.115 44.1398 88.3465 44.1842 88.5699C44.2286 88.7933 44.3383 88.9984 44.4994 89.1595C44.6604 89.3205 44.8656 89.4302 45.089 89.4746C45.3123 89.5191 45.5439 89.4963 45.7543 89.4091C45.9647 89.3219 46.1445 89.1744 46.2711 88.985C46.3976 88.7956 46.4651 88.573 46.4651 88.3452C46.4651 88.0398 46.3438 87.7469 46.1279 87.531C45.9119 87.315 45.619 87.1937 45.3136 87.1937Z" fill="#323F4B"/>
<path d="M73.2207 91.5378C74.984 91.5378 76.4135 90.1083 76.4135 88.345C76.4135 86.5816 74.984 85.1521 73.2207 85.1521C71.4573 85.1521 70.0278 86.5816 70.0278 88.345C70.0278 90.1083 71.4573 91.5378 73.2207 91.5378Z" fill="#323F4B"/>
<path d="M73.2207 89.9238C74.0927 89.9238 74.7996 89.2169 74.7996 88.3449C74.7996 87.4728 74.0927 86.7659 73.2207 86.7659C72.3486 86.7659 71.6417 87.4728 71.6417 88.3449C71.6417 89.2169 72.3486 89.9238 73.2207 89.9238Z" fill="#ACCCF8"/>
<path d="M73.2293 90.3604C72.8283 90.3621 72.4358 90.2447 72.1016 90.0229C71.7675 89.8012 71.5067 89.4852 71.3525 89.115C71.1982 88.7449 71.1574 88.3372 71.2352 87.9438C71.313 87.5504 71.5059 87.189 71.7895 86.9054C72.0731 86.6218 72.4345 86.4289 72.8279 86.3511C73.2213 86.2733 73.629 86.3141 73.9991 86.4683C74.3693 86.6226 74.6853 86.8834 74.907 87.2175C75.1287 87.5517 75.2462 87.9442 75.2445 88.3452C75.2422 88.879 75.0291 89.3902 74.6517 89.7676C74.2743 90.145 73.7631 90.3581 73.2293 90.3604ZM73.2293 87.1937C73.0012 87.192 72.7777 87.258 72.5872 87.3835C72.3967 87.509 72.2477 87.6882 72.1592 87.8985C72.0708 88.1087 72.0467 88.3405 72.0901 88.5645C72.1336 88.7884 72.2426 88.9944 72.4032 89.1563C72.5639 89.3182 72.7691 89.4288 72.9927 89.4739C73.2163 89.5191 73.4483 89.4968 73.6592 89.4099C73.8701 89.323 74.0505 89.1754 74.1774 88.9859C74.3043 88.7963 74.3721 88.5733 74.3721 88.3452C74.3721 88.0413 74.252 87.7497 74.0379 87.534C73.8239 87.3183 73.5332 87.196 73.2293 87.1937Z" fill="#323F4B"/>
<path d="M42.1382 76.4373C41.9987 76.5245 38.5441 79.7435 38.5441 79.7435C39.1853 79.6967 39.8138 79.5403 40.4022 79.2812C41.3807 78.6432 42.2621 77.8675 43.0193 76.9781L42.1382 76.4373Z" fill="#323F4B"/>
<path d="M38.544 80.18C38.4576 80.1788 38.3735 80.1519 38.3023 80.1028C38.2312 80.0537 38.1762 79.9846 38.1444 79.9042C38.1127 79.8238 38.1055 79.7358 38.1238 79.6513C38.1422 79.5668 38.1852 79.4897 38.2474 79.4297C41.7369 76.1758 41.8677 76.0973 41.9114 76.0624C41.98 76.0217 42.0584 76.0002 42.1382 76.0002C42.218 76.0002 42.2963 76.0217 42.365 76.0624L43.2374 76.5946C43.2901 76.6288 43.3352 76.6736 43.3698 76.7261C43.4043 76.7787 43.4276 76.8379 43.438 76.8999C43.4481 76.9635 43.4439 77.0286 43.4258 77.0905C43.4077 77.1523 43.3761 77.2094 43.3333 77.2575C42.5408 78.2 41.6081 79.015 40.5679 79.674C39.9328 79.9544 39.254 80.1226 38.5615 80.1712L38.544 80.18ZM42.1818 76.9784C41.7805 77.3361 40.8907 78.1648 40.027 78.9674L40.2277 78.8801C41.0166 78.3856 41.728 77.7771 42.3388 77.0744L42.1818 76.9784Z" fill="#323F4B"/>
<path d="M47.8784 75.9835C46.8249 76.095 45.7949 76.3686 44.8251 76.7948C44.5547 78.0946 45.366 81.1567 47.9918 81.1567L47.8784 75.9835Z" fill="#323F4B"/>
<path d="M47.9918 81.6277C47.4862 81.6251 46.9878 81.5075 46.5344 81.2838C46.081 81.0601 45.6844 80.7362 45.3747 80.3366C44.9868 79.8218 44.7046 79.2353 44.5444 78.611C44.3842 77.9866 44.3492 77.3367 44.4413 76.6988C44.4541 76.6411 44.4784 76.5866 44.5129 76.5386C44.5474 76.4906 44.5913 76.4502 44.6419 76.4196C45.667 75.966 46.7555 75.6718 47.8697 75.5473C47.9924 75.5363 48.1145 75.5739 48.2099 75.652C48.2559 75.6923 48.2928 75.742 48.3184 75.7976C48.3439 75.8532 48.3575 75.9135 48.3582 75.9747L48.4716 81.2089C48.4731 81.2668 48.4631 81.3243 48.4421 81.3782C48.4211 81.4321 48.3896 81.4813 48.3495 81.523C48.3004 81.5643 48.2432 81.5949 48.1816 81.613C48.1201 81.631 48.0554 81.636 47.9918 81.6277ZM45.2264 77.0739C45.1743 78.0504 45.4677 79.014 46.0551 79.7957C46.4227 80.2742 46.9539 80.6004 47.5469 80.7117L47.4509 76.4894C46.6882 76.5922 45.9411 76.7885 45.2264 77.0739Z" fill="#323F4B"/>
<path d="M40.0794 82.3171C39.8268 82.7668 39.4672 83.1473 39.0326 83.425C38.3307 83.6285 37.5976 83.7024 36.8691 83.6431C36.8691 83.6431 36.8691 83.5472 36.8691 83.5123C36.9003 83.2653 36.9882 83.029 37.1259 82.8216C37.2637 82.6143 37.4475 82.4416 37.663 82.3171H40.0794Z" fill="#ACCCF8"/>
<path d="M80.662 86.9755H37.3926C37.3347 86.9755 37.2792 86.9525 37.2383 86.9116C37.1974 86.8707 37.1745 86.8152 37.1745 86.7574C37.1745 86.6996 37.1974 86.6441 37.2383 86.6032C37.2792 86.5623 37.3347 86.5393 37.3926 86.5393H80.662C80.7191 86.5415 80.7733 86.5651 80.8138 86.6056C80.8542 86.646 80.8779 86.7002 80.8801 86.7574C80.8801 86.8152 80.8571 86.8707 80.8162 86.9116C80.7753 86.9525 80.7198 86.9755 80.662 86.9755Z" fill="#323F4B"/>
<path d="M49.1782 81.3227V76.0187C49.1782 76.0187 54.6044 75.914 55.9653 76.0187L55.782 81.3227H49.1782Z" fill="#323F4B"/>
<path d="M55.782 81.7673H49.1607C49.045 81.7673 48.9341 81.7214 48.8523 81.6396C48.7705 81.5578 48.7245 81.4468 48.7245 81.3311V76.0271C48.7267 75.9136 48.7721 75.8052 48.8516 75.7241C48.9311 75.643 49.0385 75.5954 49.152 75.591C49.3701 75.591 54.6217 75.4863 55.9913 75.591C56.1016 75.5999 56.2042 75.6512 56.2774 75.7342C56.3506 75.8172 56.3888 75.9253 56.3839 76.0359L56.2181 81.3573C56.2115 81.4684 56.1626 81.5727 56.0815 81.649C56.0004 81.7252 55.8933 81.7675 55.782 81.7673ZM49.5969 80.895H55.3632L55.5028 76.4197C54.0547 76.3499 50.7746 76.4197 49.5969 76.4197V80.895Z" fill="#323F4B"/>
<path d="M57.3261 81.3225V75.9749C57.3261 75.9749 61.8712 75.8441 62.9267 76.1843C63.9823 76.5245 70.1325 81.34 70.0278 81.3225C69.9231 81.3051 57.3261 81.3225 57.3261 81.3225Z" fill="#323F4B"/>
<path d="M70.0278 81.7675H57.3261C57.2112 81.7653 57.1015 81.7186 57.0202 81.6373C56.9389 81.556 56.8922 81.4463 56.89 81.3313V75.9837C56.8899 75.8696 56.9347 75.7599 57.0146 75.6784C57.0945 75.5968 57.2032 75.5498 57.3174 75.5476C57.7885 75.5476 61.9671 75.4254 63.0576 75.7744C64.5041 76.5483 65.869 77.466 67.1315 78.5136C70.5338 81.0696 70.5251 81.1307 70.4553 81.4273C70.432 81.5235 70.3773 81.6091 70.2999 81.6708C70.2225 81.7324 70.1267 81.7664 70.0278 81.7675ZM57.7623 76.4112V80.8952H68.7978C66.8907 79.3406 64.886 77.9099 62.7959 76.6119C61.1275 76.3929 59.4428 76.3258 57.7623 76.4112Z" fill="#323F4B"/>
<path d="M81.7349 84.184H78.7078C78.8721 84.5774 79.1481 84.914 79.5017 85.1523C80.0949 85.5449 81.9617 85.2919 81.9617 85.2919L81.7349 84.184Z" fill="#ACCCF8"/>
<path d="M73.2294 71.3862H63.6769C63.5613 71.3862 63.4503 71.3402 63.3685 71.2584C63.2867 71.1766 63.2408 71.0657 63.2408 70.95V65.0702C63.2408 64.9545 63.2867 64.8436 63.3685 64.7618C63.4503 64.68 63.5613 64.634 63.6769 64.634H73.2294C73.345 64.634 73.456 64.68 73.5378 64.7618C73.6196 64.8436 73.6655 64.9545 73.6655 65.0702V70.95C73.6633 71.065 73.6166 71.1746 73.5353 71.2559C73.454 71.3373 73.3443 71.3839 73.2294 71.3862ZM64.1218 70.5138H72.7932V65.5064H64.1218V70.5138Z" fill="#323F4B"/>
</svg>
