<svg width="400" height="300" viewBox="0 0 400 300" fill="none" xmlns="http://www.w3.org/2000/svg">
<path d="M125.99 103.92C137.743 103.92 147.27 94.3926 147.27 82.64C147.27 70.8874 137.743 61.36 125.99 61.36C114.237 61.36 104.71 70.8874 104.71 82.64C104.71 94.3926 114.237 103.92 125.99 103.92Z" fill="#1264D1"/>
<path d="M219.6 70.87C215.99 71.14 211.51 71.87 209.49 68.87C208.12 66.87 208.49 63.65 206.49 62.29C205.29 61.5 203.73 61.6899 202.3 61.75C199.679 61.9936 197.059 61.2834 194.92 59.75C192.92 58.11 191.85 55.09 193.07 52.75C193.714 51.6412 194.67 50.7471 195.82 50.18C199.18 48.35 203.67 48.4499 206.55 50.9599C208.95 53.0399 210.15 56.56 213.1 57.74C214.97 58.49 217.1 58.0899 219.1 58.0099C221.1 57.9299 223.42 58.3699 224.42 60.1199C225.31 61.6599 224.83 63.67 225.55 65.29C226.55 67.53 229.3 68.2099 231.45 69.3899C233.6 70.57 237.12 73.81 236.9 76.61C236.68 79.41 233.78 80.61 231.49 78.86C230.01 77.75 229.91 75.1899 228.74 73.7799C226.48 71.1399 222.88 70.62 219.6 70.87Z" fill="white"/>
<path d="M233.69 80.2C232.765 80.1849 231.87 79.8689 231.14 79.3C230.266 78.494 229.644 77.452 229.35 76.3C229.136 75.5336 228.798 74.8073 228.35 74.15C226.58 72.01 223.66 71.08 219.68 71.37L218.61 71.46C215.09 71.76 211.1 72.1 209.11 69.14C208.554 68.1888 208.162 67.151 207.95 66.07C207.6 64.69 207.26 63.39 206.22 62.7C205.161 62.1897 203.969 62.0219 202.81 62.22H202.33C200.12 62.32 196.98 62.04 194.61 60.14C192.55 58.47 191.24 55.14 192.61 52.55C193.311 51.3453 194.356 50.3773 195.61 49.77C197.361 48.7675 199.372 48.3118 201.384 48.4615C203.396 48.6112 205.317 49.3594 206.9 50.61C207.853 51.512 208.702 52.5183 209.43 53.61C210.57 55.18 211.65 56.61 213.31 57.33C214.74 57.7687 216.252 57.8747 217.73 57.64C218.18 57.64 218.63 57.57 219.08 57.56C220.7 57.49 223.59 57.72 224.86 59.92C225.303 60.8342 225.542 61.8341 225.56 62.85C225.581 63.6331 225.733 64.4072 226.01 65.14C226.68 66.65 228.29 67.39 230.01 68.14C230.58 68.4 231.16 68.67 231.7 68.96C234.14 70.3 237.64 73.67 237.41 76.66C237.374 77.334 237.157 77.9858 236.78 78.5459C236.403 79.1059 235.881 79.5531 235.27 79.84C234.777 80.0778 234.237 80.2009 233.69 80.2ZM221 70.31C224.58 70.31 227.36 71.4 229.09 73.5C229.628 74.2596 230.034 75.1049 230.29 76C230.529 76.9675 231.031 77.85 231.74 78.55C232.16 78.8974 232.667 79.1239 233.206 79.2049C233.745 79.286 234.296 79.2186 234.8 79.01C235.25 78.7987 235.632 78.4676 235.906 78.0529C236.179 77.6383 236.333 77.1563 236.35 76.66C236.54 74.25 233.4 71.14 231.16 69.92C230.64 69.63 230.08 69.38 229.53 69.12C227.73 68.3 225.87 67.44 225.04 65.58C224.721 64.7484 224.542 63.8699 224.51 62.98C224.507 62.1052 224.312 61.2416 223.94 60.45C222.94 58.65 220.19 58.55 219.07 58.6C218.63 58.6 218.19 58.65 217.76 58.68C216.128 58.9273 214.462 58.7938 212.89 58.29C210.96 57.52 209.75 55.85 208.57 54.24C207.887 53.215 207.092 52.2692 206.2 51.42C203.63 49.2 199.36 48.89 196.03 50.71C194.975 51.2091 194.089 52.0049 193.48 53C192.33 55.17 193.48 57.93 195.2 59.34C197.32 61.05 200.2 61.34 202.25 61.2H202.72C204.087 60.9825 205.489 61.2067 206.72 61.84C208.09 62.74 208.49 64.3 208.87 65.84C209.05 66.8053 209.388 67.7344 209.87 68.59C211.53 71.07 215.21 70.75 218.45 70.48L219.54 70.39C220.05 70.33 220.53 70.31 221 70.31Z" fill="#D5E6FB"/>
<path d="M249.43 66.17C248.108 65.2972 246.991 64.1494 246.154 62.8049C245.317 61.4604 244.78 59.9511 244.58 58.38C244.588 56.9724 244.361 55.5733 243.91 54.24C243.24 52.83 241.78 51.89 241.16 50.45C240.78 49.5787 240.745 48.5956 241.062 47.6994C241.379 46.8033 242.025 46.061 242.868 45.6227C243.712 45.1844 244.69 45.0828 245.606 45.3385C246.521 45.5942 247.306 46.1881 247.8 47C248.3 47.9817 248.602 49.0519 248.69 50.15C248.907 52.3367 249.798 54.4019 251.24 56.06C253.49 58.29 257.47 58.94 258.46 61.95C258.92 63.37 258.46 64.95 258.98 66.38C259.463 67.3941 260.143 68.3018 260.98 69.05C262.57 70.93 264.68 75.21 263.48 77.75C262.28 80.29 259.14 80.34 257.62 77.91C256.62 76.35 257.46 73.91 256.88 72.18C255.75 68.84 253.06 67.95 250.24 66.58C250 66.47 249.69 66.32 249.43 66.17Z" fill="white"/>
<path d="M260.55 80.19C259.862 80.1754 259.19 79.9837 258.598 79.6334C258.006 79.283 257.514 78.7859 257.17 78.19C256.645 77.1245 256.44 75.9296 256.58 74.75C256.636 73.9478 256.569 73.1417 256.38 72.36C255.45 69.61 253.38 68.64 250.98 67.52L249.98 67.05C249.7 66.91 249.43 66.76 249.16 66.59C247.775 65.6794 246.603 64.4792 245.726 63.0723C244.849 61.6653 244.287 60.0849 244.08 58.44C244.03 58.05 244 57.66 243.98 57.26C243.98 56.3017 243.8 55.352 243.45 54.46C243.111 53.8344 242.687 53.2589 242.19 52.75C241.576 52.1377 241.071 51.4239 240.7 50.64C240.298 49.6572 240.278 48.5594 240.644 47.5627C241.011 46.566 241.737 45.7426 242.68 45.2547C243.624 44.7668 244.715 44.6496 245.741 44.9264C246.766 45.2031 247.65 45.8537 248.22 46.75C248.716 47.6803 249.022 48.7002 249.12 49.75L249.17 50.08C249.45 51.75 250 54.15 251.58 55.71C252.486 56.5082 253.495 57.1809 254.58 57.71C256.38 58.71 258.25 59.71 258.91 61.77C259.121 62.5315 259.215 63.3204 259.19 64.11C259.16 64.8116 259.241 65.5136 259.43 66.19C259.72 66.896 260.161 67.5305 260.72 68.05L261.31 68.71C263.11 70.83 265.17 75.23 263.88 77.94C263.608 78.5577 263.173 79.0897 262.621 79.479C262.07 79.8683 261.423 80.1002 260.75 80.15L260.55 80.19ZM244.55 45.77C244.063 45.7648 243.583 45.8781 243.15 46.1C242.446 46.4988 241.907 47.1364 241.632 47.8975C241.357 48.6586 241.363 49.4931 241.65 50.25C241.989 50.9267 242.435 51.5446 242.97 52.08C243.542 52.6711 244.02 53.3454 244.39 54.08C244.787 55.0726 244.994 56.131 245 57.2C245 57.57 245 57.95 245.09 58.32C245.278 59.8172 245.789 61.2558 246.586 62.5368C247.384 63.8177 248.449 64.9106 249.71 65.74C249.95 65.89 250.19 66.02 250.44 66.15L251.44 66.61C253.94 67.78 256.29 68.89 257.35 72.05C257.589 72.9356 257.677 73.8552 257.61 74.77C257.484 75.7545 257.633 76.7548 258.04 77.66C258.308 78.1369 258.701 78.5316 259.177 78.8012C259.653 79.0709 260.193 79.2053 260.74 79.19C261.231 79.1497 261.701 78.9754 262.099 78.6862C262.498 78.397 262.809 78.004 263 77.55C264 75.37 262.22 71.34 260.56 69.4C260.38 69.17 260.19 68.97 260 68.77C259.346 68.1528 258.837 67.398 258.51 66.56C258.278 65.7821 258.176 64.9711 258.21 64.16C258.234 63.4856 258.156 62.8114 257.98 62.16C257.44 60.51 255.82 59.61 254.11 58.66C252.939 58.0851 251.855 57.3478 250.89 56.47C249.1 54.71 248.5 52.1 248.2 50.29L248.14 49.96C248.06 49.0377 247.799 48.1404 247.37 47.32C247.063 46.8434 246.641 46.4516 246.143 46.1807C245.645 45.9098 245.087 45.7686 244.52 45.77H244.55Z" fill="#D5E6FB"/>
<path d="M106.86 128.02H102.91V133.48H106.86V128.02Z" fill="#093269"/>
<path d="M106.85 134H102.91C102.777 134 102.65 133.947 102.556 133.854C102.463 133.76 102.41 133.633 102.41 133.5V128C102.41 127.867 102.463 127.74 102.556 127.646C102.65 127.553 102.777 127.5 102.91 127.5H106.85C106.983 127.5 107.11 127.553 107.204 127.646C107.297 127.74 107.35 127.867 107.35 128V133.47C107.354 133.538 107.344 133.606 107.321 133.671C107.298 133.735 107.261 133.793 107.215 133.843C107.168 133.893 107.111 133.932 107.049 133.959C106.986 133.986 106.918 134 106.85 134ZM103.41 133H106.35V128.53H103.41V133Z" fill="#093269"/>
<path d="M107.51 126.49H102.25V128.03H107.51V126.49Z" fill="white"/>
<path d="M107.51 128.52H102.25C102.117 128.52 101.99 128.467 101.896 128.374C101.803 128.28 101.75 128.153 101.75 128.02V126.49C101.75 126.357 101.803 126.23 101.896 126.136C101.99 126.043 102.117 125.99 102.25 125.99H107.51C107.643 125.99 107.77 126.043 107.864 126.136C107.957 126.23 108.01 126.357 108.01 126.49V128C108.013 128.067 108.002 128.134 107.978 128.197C107.954 128.26 107.918 128.318 107.871 128.367C107.824 128.415 107.768 128.454 107.706 128.48C107.644 128.506 107.577 128.52 107.51 128.52ZM102.75 127.52H107V127H102.74L102.75 127.52Z" fill="#093269"/>
<path d="M297.91 87.9H245.26V150.84H297.91V87.9Z" fill="white"/>
<path d="M297.92 151.34H245.26C245.127 151.34 245 151.287 244.906 151.194C244.813 151.1 244.76 150.973 244.76 150.84V87.9C244.76 87.7674 244.813 87.6402 244.906 87.5465C245 87.4527 245.127 87.4 245.26 87.4H297.92C298.053 87.4 298.18 87.4527 298.274 87.5465C298.367 87.6402 298.42 87.7674 298.42 87.9V150.84C298.42 150.973 298.367 151.1 298.274 151.194C298.18 151.287 298.053 151.34 297.92 151.34ZM245.76 150.34H297.42V88.4H245.76V150.34Z" fill="#093269"/>
<path d="M179.66 150.84H125.99V73.88L179.66 88.09V150.84Z" fill="#093269"/>
<path d="M179.66 151.34H126C125.867 151.34 125.74 151.287 125.646 151.194C125.553 151.1 125.5 150.973 125.5 150.84V73.84C125.497 73.7632 125.512 73.6868 125.544 73.6171C125.576 73.5474 125.625 73.4865 125.686 73.4394C125.746 73.3924 125.818 73.3606 125.893 73.3468C125.969 73.333 126.047 73.3375 126.12 73.36L179.8 87.56C179.907 87.5889 180.002 87.6528 180.069 87.7415C180.136 87.8303 180.172 87.9388 180.17 88.05V150.8C180.176 150.87 180.167 150.94 180.143 151.006C180.12 151.072 180.083 151.133 180.035 151.183C179.987 151.234 179.929 151.275 179.864 151.302C179.8 151.329 179.73 151.342 179.66 151.34ZM126.49 150.34H179.16V88.47L126.49 74.53V150.34Z" fill="#093269"/>
<path d="M190.87 122.72V102L147.38 122.43V150.22H235.73V102L190.87 122.72Z" fill="white"/>
<path d="M235.73 150.71H147.38C147.247 150.71 147.12 150.657 147.026 150.564C146.933 150.47 146.88 150.343 146.88 150.21V122.43C146.879 122.335 146.907 122.242 146.958 122.162C147.01 122.082 147.083 122.019 147.17 121.98L190.65 101.55C190.723 101.508 190.806 101.486 190.89 101.486C190.974 101.486 191.057 101.508 191.13 101.55C191.203 101.593 191.263 101.655 191.305 101.728C191.348 101.802 191.37 101.885 191.37 101.97V121.91L235.52 101.52C235.594 101.481 235.676 101.46 235.76 101.46C235.844 101.46 235.926 101.481 236 101.52C236.072 101.564 236.131 101.626 236.171 101.699C236.211 101.773 236.232 101.856 236.23 101.94V150.15C236.239 150.22 236.232 150.292 236.211 150.36C236.189 150.428 236.154 150.49 236.107 150.543C236.059 150.596 236.001 150.638 235.936 150.667C235.871 150.696 235.801 150.71 235.73 150.71ZM147.88 149.71H235.23V102.78L191.08 123.17C191.006 123.209 190.924 123.23 190.84 123.23C190.756 123.23 190.674 123.209 190.6 123.17C190.528 123.126 190.469 123.064 190.429 122.991C190.389 122.917 190.368 122.834 190.37 122.75V102.79L147.88 122.79V149.71Z" fill="#093269"/>
<path d="M226.68 127.25H200V150.06H226.68V127.25Z" fill="#093269"/>
<path d="M226.68 150.56H200C199.867 150.56 199.74 150.507 199.646 150.414C199.553 150.32 199.5 150.193 199.5 150.06V127.25C199.5 127.117 199.553 126.99 199.646 126.896C199.74 126.803 199.867 126.75 200 126.75H226.68C226.813 126.75 226.94 126.803 227.034 126.896C227.127 126.99 227.18 127.117 227.18 127.25V150.06C227.18 150.193 227.127 150.32 227.034 150.414C226.94 150.507 226.813 150.56 226.68 150.56ZM200.5 149.56H226.18V127.75H200.5V149.56Z" fill="#093269"/>
<path d="M227.04 75.89H238.78L242.1 141.26H223.72L227.04 75.89Z" fill="#1264D1"/>
<path d="M239.11 71.3099H226.71C225.744 71.3099 224.96 72.0934 224.96 73.0599V74.1399C224.96 75.1064 225.744 75.8899 226.71 75.8899H239.11C240.077 75.8899 240.86 75.1064 240.86 74.1399V73.0599C240.86 72.0934 240.077 71.3099 239.11 71.3099Z" fill="#093269"/>
<path d="M239.11 76.3899H226.71C226.113 76.3899 225.541 76.1529 225.119 75.7309C224.697 75.309 224.46 74.7367 224.46 74.1399V73.0699C224.46 72.4723 224.697 71.8989 225.118 71.4754C225.54 71.0519 226.112 70.8126 226.71 70.8099H239.11C239.708 70.8126 240.28 71.0519 240.702 71.4754C241.123 71.8989 241.36 72.4723 241.36 73.0699V74.1399C241.36 74.7367 241.123 75.309 240.701 75.7309C240.279 76.1529 239.707 76.3899 239.11 76.3899ZM226.71 71.8099C226.378 71.8126 226.06 71.9465 225.826 72.1825C225.591 72.4185 225.46 72.7375 225.46 73.0699V74.1399C225.46 74.4715 225.592 74.7894 225.826 75.0238C226.061 75.2582 226.379 75.3899 226.71 75.3899H239.11C239.442 75.3899 239.759 75.2582 239.994 75.0238C240.228 74.7894 240.36 74.4715 240.36 74.1399V73.0699C240.36 72.7375 240.229 72.4185 239.995 72.1825C239.76 71.9465 239.442 71.8126 239.11 71.8099H226.71Z" fill="#093269"/>
<path d="M252.32 75.89H264.06L267.38 141.26H249L252.32 75.89Z" fill="#1264D1"/>
<path d="M264.39 71.3099H251.99C251.023 71.3099 250.24 72.0934 250.24 73.0599V74.1399C250.24 75.1064 251.023 75.8899 251.99 75.8899H264.39C265.356 75.8899 266.14 75.1064 266.14 74.1399V73.0599C266.14 72.0934 265.356 71.3099 264.39 71.3099Z" fill="#093269"/>
<path d="M264.39 76.3899H252C251.403 76.3899 250.831 76.1529 250.409 75.7309C249.987 75.309 249.75 74.7367 249.75 74.1399V73.0699C249.75 72.4723 249.987 71.8989 250.408 71.4754C250.83 71.0519 251.402 70.8126 252 70.8099H264.4C264.998 70.8126 265.57 71.0519 265.992 71.4754C266.413 71.8989 266.65 72.4723 266.65 73.0699V74.1399C266.65 74.4363 266.591 74.7297 266.478 75.0033C266.364 75.2769 266.197 75.5254 265.987 75.7345C265.777 75.9435 265.528 76.1091 265.254 76.2215C264.98 76.334 264.686 76.3913 264.39 76.3899ZM252 71.8099C251.668 71.8126 251.35 71.9465 251.116 72.1825C250.881 72.4185 250.75 72.7375 250.75 73.0699V74.1399C250.75 74.4715 250.882 74.7894 251.116 75.0238C251.351 75.2582 251.668 75.3899 252 75.3899H264.4C264.732 75.3899 265.049 75.2582 265.284 75.0238C265.518 74.7894 265.65 74.4715 265.65 74.1399V73.0699C265.65 72.7375 265.519 72.4185 265.284 72.1825C265.05 71.9465 264.732 71.8126 264.4 71.8099H252Z" fill="#093269"/>
<path d="M215.56 141.26H273.91L278.1 150.22H211.37L215.56 141.26Z" fill="white"/>
<path d="M278.1 150.71H211.37C211.286 150.712 211.203 150.691 211.129 150.651C211.056 150.611 210.994 150.552 210.95 150.48C210.911 150.406 210.89 150.324 210.89 150.24C210.89 150.156 210.911 150.074 210.95 150L215.14 141.05C215.179 140.963 215.242 140.89 215.322 140.838C215.402 140.787 215.495 140.759 215.59 140.76H273.94C274.036 140.76 274.131 140.787 274.212 140.839C274.293 140.89 274.359 140.963 274.4 141.05L278.58 150C278.624 150.072 278.648 150.155 278.648 150.24C278.648 150.325 278.624 150.408 278.58 150.48C278.532 150.561 278.46 150.627 278.375 150.668C278.289 150.709 278.194 150.723 278.1 150.71ZM212.16 149.71H277.32L273.59 141.71H215.88L212.16 149.71Z" fill="#093269"/>
<path d="M96.06 150.59C96.06 150.65 96.06 150.71 96.06 150.77C96.0591 154.545 96.2661 158.318 96.68 162.07C96.6998 162.51 96.7499 162.947 96.83 163.38C97.6124 169.854 99.0087 176.24 101 182.45L101.6 184.24C101.82 184.89 102.05 185.54 102.27 186.18C102.49 186.82 102.68 187.25 102.88 187.78C103.08 188.31 103.31 188.91 103.52 189.46C103.566 189.544 103.606 189.631 103.64 189.72C103.97 190.57 104.34 191.42 104.7 192.25C104.87 192.66 105.05 193.06 105.23 193.46L105.89 194.87C106.117 195.37 106.357 195.87 106.61 196.37C107.33 197.863 108.09 199.33 108.89 200.77C109.117 201.197 109.357 201.627 109.61 202.06C109.81 202.41 110 202.77 110.21 203.11C110.69 203.94 111.21 204.76 111.7 205.58C111.98 206.04 112.26 206.49 112.56 206.94C112.86 207.39 113.31 208.1 113.7 208.67C115.533 211.413 117.502 214.063 119.6 216.61L120.4 217.61L121.06 218.4L121.96 219.4C122.78 220.34 123.62 221.25 124.47 222.15L125.75 223.48L126.99 224.73L128.38 226.08C128.96 226.63 129.55 227.18 130.15 227.72C130.75 228.26 131.24 228.72 131.81 229.2C132.38 229.68 133.2 230.39 133.91 230.98C148.349 242.867 165.727 250.641 184.212 253.482C202.698 256.323 221.608 254.127 238.95 247.124C256.293 240.121 271.426 228.571 282.756 213.691C294.086 198.811 301.193 181.15 303.33 162.57C303.44 161.57 303.53 160.57 303.62 159.62C303.66 159.22 303.69 158.82 303.71 158.42C303.705 158.343 303.705 158.267 303.71 158.19C303.757 157.523 303.797 156.873 303.83 156.24C303.89 155.17 303.93 154.09 303.94 153.01C303.94 152.27 303.94 151.52 303.94 150.77C303.945 150.71 303.945 150.65 303.94 150.59H96.06Z" fill="white"/>
<path d="M303.93 150.59C303.935 150.65 303.935 150.71 303.93 150.77C303.93 151.52 303.93 152.27 303.93 153.01C303.93 154.09 303.88 155.17 303.82 156.24C303.82 156.907 303.78 157.557 303.7 158.19C303.695 158.267 303.695 158.343 303.7 158.42C303.7 158.82 303.67 159.22 303.61 159.62C303.52 160.62 303.43 161.62 303.32 162.57C301.19 181.157 294.085 198.826 282.755 213.714C271.424 228.602 256.287 240.157 238.94 247.163C221.592 254.169 202.675 256.365 184.184 253.521C165.692 250.676 148.31 242.896 133.87 231C133.16 230.41 132.45 229.82 131.77 229.22C131.09 228.62 130.66 228.22 130.11 227.74C129.56 227.26 128.92 226.65 128.34 226.1L127 224.73L125.76 223.48L124.48 222.15C123.63 221.25 122.79 220.34 121.97 219.4L121.07 218.4L120.41 217.61L119.61 216.61C117.512 214.063 115.543 211.413 113.71 208.67C113.32 208.1 112.94 207.52 112.57 206.94C112.2 206.36 111.99 206.04 111.71 205.58C111.2 204.76 110.71 203.94 110.22 203.11C110.01 202.77 109.82 202.41 109.62 202.06C109.42 201.71 109.13 201.2 108.9 200.77C108.1 199.33 107.34 197.863 106.62 196.37C106.373 195.87 106.133 195.37 105.9 194.87L105.24 193.46C105.06 193.06 104.88 192.66 104.71 192.25C104.35 191.42 103.98 190.57 103.65 189.72C103.616 189.631 103.576 189.544 103.53 189.46C103.32 188.91 103.1 188.35 102.89 187.78C102.68 187.21 102.48 186.72 102.28 186.18C102.08 185.64 101.83 184.89 101.61 184.24L101.01 182.45C99.0288 176.239 97.6426 169.853 96.87 163.38C96.7899 162.947 96.7398 162.51 96.72 162.07C96.3061 158.318 96.0991 154.545 96.1 150.77C96.1 150.71 96.1 150.65 96.1 150.59H303.93ZM303.93 149.59H96.06C95.8065 149.589 95.5622 149.685 95.3765 149.858C95.1909 150.03 95.0777 150.267 95.06 150.52C95.0556 150.603 95.0556 150.687 95.06 150.77C95.0605 154.582 95.2675 158.391 95.68 162.18C95.7098 162.636 95.7632 163.09 95.84 163.54C96.6105 170.065 98.0035 176.501 100 182.76C100.19 183.36 100.4 183.97 100.6 184.56C100.8 185.15 101.05 185.87 101.28 186.56C101.51 187.25 101.67 187.56 101.85 188.08V188.18C102.06 188.75 102.28 189.32 102.51 189.87C102.51 189.98 102.59 190.05 102.61 190.11C102.92 190.9 103.26 191.71 103.69 192.69C103.85 193.08 104.03 193.49 104.24 193.93C104.45 194.37 104.67 194.87 104.89 195.34C105.11 195.81 105.37 196.34 105.62 196.86C106.35 198.37 107.13 199.86 107.92 201.3C108.15 201.72 108.39 202.16 108.65 202.6L108.77 202.82C108.94 203.11 109.1 203.4 109.27 203.68C109.77 204.55 110.27 205.42 110.76 206.15L110.98 206.51L111.62 207.51C112.03 208.16 112.41 208.73 112.78 209.27C114.62 212.01 116.63 214.71 118.78 217.27L119.59 218.27C119.8 218.53 120.03 218.79 120.25 219.05C120.47 219.31 120.87 219.78 121.19 220.13C122.01 221.07 122.84 221.98 123.71 222.89C124.13 223.34 124.56 223.79 125 224.23C125.44 224.67 125.83 225.09 126.26 225.5C126.69 225.91 127.18 226.41 127.64 226.85L128.08 227.26L129.44 228.52C129.99 229.02 130.54 229.52 131.11 230C131.68 230.48 132.51 231.21 133.23 231.8C147.809 243.788 165.349 251.625 184.006 254.486C202.662 257.347 221.745 255.127 239.246 248.058C256.747 240.989 272.019 229.333 283.455 214.317C294.891 199.301 302.067 181.48 304.23 162.73C304.36 161.61 304.45 160.66 304.52 159.73C304.52 159.34 304.59 158.93 304.62 158.53V158.45C304.625 158.42 304.625 158.39 304.62 158.36C304.625 158.34 304.625 158.32 304.62 158.3C304.67 157.64 304.7 156.98 304.73 156.3C304.79 155.23 304.83 154.13 304.85 153.04C304.85 152.3 304.85 151.54 304.85 150.78C304.855 150.687 304.855 150.593 304.85 150.5C304.825 150.252 304.709 150.023 304.524 149.857C304.339 149.69 304.099 149.599 303.85 149.6L303.93 149.59Z" fill="#093269"/>
<path d="M260 153.33C259.434 152.985 259.014 152.444 258.82 151.81C258.7 151.414 258.633 151.004 258.62 150.59H257.5C257.083 151.038 256.727 151.539 256.44 152.08C255.65 153.67 254.36 152.7 253.3 152.9C253.19 152.24 253.09 151.58 252.95 150.9C252.95 150.79 252.95 150.69 252.89 150.57H251.89L251.79 150.82L251.67 150.57H235.57C235.91 151.31 236.25 152.06 236.57 152.8C237.1 154.02 237.57 155.25 238.06 156.49C238.4 157.39 238.54 158.37 238.95 159.21C239.491 160.182 240.096 161.118 240.76 162.01C241.369 162.913 241.825 163.909 242.11 164.96C242.545 166.942 242.879 168.944 243.11 170.96C243.3 172.04 243.76 172.44 244.75 171.96C246.531 171.136 248.264 170.211 249.94 169.19C251.71 168.04 253.2 166.45 255.03 165.39C255.898 164.892 256.736 164.345 257.54 163.75C258.242 163.21 258.865 162.573 259.39 161.86C259.69 161.42 259.93 160.93 260.22 160.47C260.466 159.973 260.764 159.504 261.11 159.07C263.2 156.73 262.78 154.7 260 153.33Z" fill="#D5E6FB"/>
<path d="M260.88 150.59C261.437 150.724 262.007 150.801 262.58 150.82C265.16 150.98 267.76 150.82 270.07 150.82C271.53 152.48 272.92 154.08 274.31 155.65L273.1 156.15L275.89 158.57L277.33 156.82C277.58 158.14 277.81 159.55 278.06 161C278.45 163.38 278.91 165.9 279.54 168.36C280.412 172.388 281.688 176.318 283.35 180.09C285.77 177.25 286.974 173.571 286.7 169.85C286.565 168.935 286.686 168 287.05 167.15C287.94 165.83 289.42 164.89 290.28 163.55C291.61 161.47 294.22 160.4 294.73 157.68C294.81 157.34 295.55 157 296.04 156.88C297.39 156.52 298.78 156.29 300.19 155.99C300.368 157.035 300.706 158.047 301.19 158.99C302.036 160.091 302.741 161.294 303.29 162.57C303.4 161.57 303.49 160.57 303.58 159.62C303.62 159.22 303.65 158.82 303.67 158.42C303.665 158.343 303.665 158.267 303.67 158.19C303.717 157.523 303.757 156.873 303.79 156.24C303.85 155.17 303.89 154.09 303.9 153.01C303.9 152.27 303.9 151.52 303.9 150.77C303.905 150.71 303.905 150.65 303.9 150.59H260.88Z" fill="#D5E6FB"/>
<path d="M133.86 231C134.18 230.343 134.386 229.636 134.47 228.91C134.59 227.15 135.17 225.97 136.63 225.3C138.34 224.52 140.16 224 141.92 223.3C142.332 223.194 142.7 222.959 142.97 222.63C143.874 221.196 144.593 219.654 145.11 218.04C145.507 215.788 145.767 213.514 145.89 211.23C145.874 210.981 145.926 210.732 146.04 210.51C146.94 209.34 147.97 208.26 148.78 207.02C149.59 205.78 150.91 204.16 151 202.67C151.053 202.235 151.016 201.795 150.891 201.375C150.766 200.955 150.557 200.565 150.276 200.23C149.995 199.894 149.648 199.62 149.256 199.424C148.865 199.228 148.437 199.114 148 199.09C147.696 199.005 147.435 198.809 147.27 198.54C145.27 195.8 142.27 196.41 139.46 196.36C139.7 195.18 139.1 194.8 137.88 194.52C135.02 193.86 132.73 192.52 131.88 189.29C131.01 185.88 129.33 184.92 125.78 184.73C124.707 184.512 123.706 184.027 122.87 183.32C122.19 182.77 121.57 182.15 121.02 181.47C120.748 181.106 120.44 180.771 120.1 180.47C119.1 179.79 118.4 178.34 117.1 178.62C115.8 178.9 114.32 179.27 112.93 178.62C111.54 177.97 110.42 177.44 108.93 176.73C108.56 177.73 108.07 179.09 107.55 180.53C106.55 179.04 107.55 177.58 107.78 176.03C105.02 177.74 101.78 178.71 101.18 182.49L101 182.38C107.059 201.405 118.467 218.284 133.86 231Z" fill="#D5E6FB"/>
<path d="M243.61 178.15C243.21 177.46 243.26 176.45 242.78 175.86C241.88 174.77 240.69 173.92 239.7 172.86C239.132 172.332 238.685 171.687 238.39 170.97C237.58 168.49 235.73 166.52 235.44 163.71C235.26 161.98 233.66 160.43 232.87 158.71C231.873 156.584 230.995 154.404 230.24 152.18C229.7 150.55 228.78 150.69 227.48 151.04C226.515 151.367 225.482 151.443 224.48 151.26C223.71 151.06 222.95 150.82 222.19 150.55H215.7C215.65 150.72 215.617 150.894 215.6 151.07C215.49 152.3 214.96 152.97 213.79 152.07C212.79 151.33 211.2 151.5 210.36 150.52H180.57C180.461 150.876 180.41 151.248 180.42 151.62C180.42 153.91 179.21 154.71 177.42 155.27C176.954 155.399 176.546 155.681 176.26 156.07C175.19 157.81 174.12 159.56 173.26 161.39C172.61 162.67 171.43 163.76 172.62 165.64C173.225 167.025 173.272 168.591 172.75 170.01C172.208 171.872 172.048 173.825 172.28 175.75C172.28 176.16 172.72 176.57 173.01 176.93C173.3 177.29 173.7 177.46 173.94 177.79C174.921 179.437 176.01 181.017 177.2 182.52C178.564 183.817 180.007 185.029 181.52 186.15C181.914 186.495 182.4 186.718 182.918 186.792C183.436 186.867 183.965 186.79 184.44 186.57C185.992 186.269 187.569 186.114 189.15 186.11C189.758 186.086 190.362 185.995 190.95 185.84C192.152 185.335 193.381 184.895 194.63 184.52C195.88 184.26 197.63 183.47 198.17 185.35C198.7 187.05 199.66 186.99 201.02 186.86C201.377 186.823 201.737 186.867 202.075 186.988C202.412 187.109 202.718 187.305 202.97 187.56C203.465 188.367 203.643 189.329 203.47 190.26C202.65 193.02 202.63 195.33 204.89 197.64C205.837 198.654 206.563 199.855 207.021 201.165C207.479 202.475 207.659 203.866 207.55 205.25C207.522 205.628 207.621 206.004 207.83 206.32C208.74 207.56 208.19 208.45 207.58 209.7C206.23 212.46 204.95 215.29 206.84 218.52C207.97 220.44 209.2 222.34 209.28 224.87C209.232 227.281 210.084 229.623 211.67 231.44C212.67 232.52 213.67 234.29 213.54 235.62C213.419 236.303 213.525 237.007 213.843 237.623C214.161 238.239 214.673 238.733 215.3 239.03C215.876 238.785 216.472 238.588 217.08 238.44C218.795 238.397 220.503 238.22 222.19 237.91C226.43 236.69 228.5 233.06 230.65 229.64C231.05 229.01 230.8 227.97 230.87 226.76C231.12 226.62 231.69 226.26 232.3 225.97C232.67 225.851 233.012 225.656 233.302 225.398C233.593 225.139 233.826 224.823 233.987 224.468C234.148 224.114 234.233 223.731 234.237 223.342C234.241 222.953 234.164 222.567 234.01 222.21C233.82 221.55 233.51 220.92 233.35 220.21C233.26 219.84 233.2 219.21 233.41 219.06C234.82 217.77 236.35 216.61 237.74 215.3C238.65 214.45 239.84 213.5 240.06 212.42C240.283 210.753 240.202 209.058 239.82 207.42C239.63 206.3 238.9 205.28 238.69 204.17C238.48 203.06 239.29 201.54 237.99 200.46C237.83 200.33 237.91 199.66 238.09 199.4C240.2 196.49 241.9 193.05 244.61 190.86C248.19 187.96 249.97 184.14 251.94 180.33C252.345 179.173 252.584 177.964 252.65 176.74C249.93 177.44 247.5 178.11 245.05 178.65C244.787 178.69 244.519 178.666 244.268 178.579C244.017 178.492 243.791 178.344 243.61 178.15Z" fill="#D5E6FB"/>
<path d="M243.61 221C242.94 222.42 243.13 225.14 244.27 226.12C244.529 226.349 244.841 226.512 245.177 226.593C245.514 226.675 245.865 226.672 246.201 226.586C246.536 226.501 246.845 226.334 247.102 226.101C247.358 225.868 247.553 225.576 247.67 225.25C248.75 221.67 249.67 218.06 250.67 214.46C250.74 214.18 250.67 213.84 250.85 213.62C251.289 212.965 251.473 212.173 251.368 211.392C251.263 210.611 250.876 209.896 250.28 209.38C248.18 210.94 247.97 214.38 244.21 214.21C244.21 215.43 244.28 216.56 244.21 217.68C244.202 218.813 243.999 219.936 243.61 221Z" fill="#D5E6FB"/>
<path d="M97.45 162.36C97.1984 162.234 96.9334 162.137 96.66 162.07L96.81 163.39C97.5609 163.648 98.2927 163.959 99 164.32C99.74 164.69 100.19 165.62 101 166.51L104.44 166.12C101.9 164.76 99.71 163.48 97.45 162.36Z" fill="#D5E6FB"/>
<path d="M111 168.67C111.15 166.99 108.14 165.93 105.43 166.67L106.87 168.32L104.04 168.06C106.25 169.62 108.67 168.47 111 168.67Z" fill="#D5E6FB"/>
<path d="M287.62 184.69C288.16 184.48 288.89 183.44 288.76 183.06C288.223 181.873 287.584 180.736 286.85 179.66L286.28 179.92C286.28 181.07 286.28 182.22 286.28 183.36C286.28 184.5 286.59 185.1 287.62 184.69Z" fill="#D5E6FB"/>
<path d="M120.34 136.34H101.64V150.21H120.34V136.34Z" fill="#093269"/>
<path d="M120.34 150.71H101.64C101.507 150.71 101.38 150.657 101.286 150.564C101.193 150.47 101.14 150.343 101.14 150.21V136.34C101.14 136.207 101.193 136.08 101.286 135.986C101.38 135.893 101.507 135.84 101.64 135.84H120.34C120.473 135.84 120.6 135.893 120.694 135.986C120.787 136.08 120.84 136.207 120.84 136.34V150.21C120.84 150.343 120.787 150.47 120.694 150.564C120.6 150.657 120.473 150.71 120.34 150.71ZM102.14 149.71H119.84V136.84H102.14V149.71Z" fill="#093269"/>
<path d="M110.99 126.61L98.08 137.27H123.91L110.99 126.61Z" fill="#1264D1"/>
<path d="M110.4 138.91H105.19V150.22H110.4V138.91Z" fill="white"/>
<path d="M110.4 150.71H105.19C105.057 150.71 104.93 150.657 104.836 150.564C104.743 150.47 104.69 150.343 104.69 150.21V138.91C104.69 138.777 104.743 138.65 104.836 138.556C104.93 138.463 105.057 138.41 105.19 138.41H110.4C110.533 138.41 110.66 138.463 110.754 138.556C110.847 138.65 110.9 138.777 110.9 138.91V150.21C110.9 150.343 110.847 150.47 110.754 150.564C110.66 150.657 110.533 150.71 110.4 150.71ZM105.69 149.71H109.9V139.41H105.69V149.71Z" fill="#093269"/>
<path d="M117.57 140.18H113.63V144.12H117.57V140.18Z" fill="white"/>
<path d="M117.58 144.62H113.58C113.448 144.617 113.322 144.564 113.229 144.471C113.136 144.377 113.083 144.252 113.08 144.12V140.18C113.08 140.047 113.133 139.92 113.226 139.826C113.32 139.733 113.447 139.68 113.58 139.68H117.58C117.713 139.68 117.84 139.733 117.934 139.826C118.027 139.92 118.08 140.047 118.08 140.18V144.12C118.077 144.252 118.024 144.377 117.931 144.471C117.837 144.564 117.712 144.617 117.58 144.62ZM114.13 143.62H117.13V140.68H114.13V143.62Z" fill="#093269"/>
<path d="M289.84 150.71C289.712 150.71 289.59 150.662 289.497 150.574C289.404 150.487 289.348 150.367 289.34 150.24C289.34 150.08 288.55 134 285.85 129.84C283.15 125.68 280.08 121.27 280.05 121.22C279.982 121.111 279.959 120.98 279.985 120.855C280.011 120.73 280.084 120.619 280.189 120.546C280.295 120.473 280.424 120.443 280.55 120.462C280.677 120.481 280.791 120.549 280.87 120.65C280.87 120.65 283.87 125.02 286.69 129.3C289.51 133.58 290.31 149.52 290.34 150.19C290.344 150.255 290.335 150.32 290.313 150.382C290.292 150.444 290.258 150.5 290.214 150.549C290.171 150.597 290.118 150.637 290.058 150.664C289.999 150.692 289.935 150.707 289.87 150.71H289.84Z" fill="#093269"/>
<path d="M286.27 130.07C286.156 130.071 286.046 130.032 285.956 129.961C285.867 129.89 285.805 129.791 285.78 129.68C284.889 125.332 284.889 120.848 285.78 116.5C285.813 116.371 285.896 116.26 286.01 116.191C286.124 116.121 286.26 116.1 286.39 116.13C286.454 116.146 286.514 116.175 286.566 116.215C286.619 116.254 286.663 116.304 286.697 116.36C286.73 116.417 286.752 116.48 286.761 116.545C286.77 116.61 286.767 116.676 286.75 116.74C285.905 120.938 285.905 125.262 286.75 129.46C286.765 129.524 286.767 129.591 286.755 129.656C286.744 129.721 286.72 129.783 286.685 129.839C286.65 129.895 286.604 129.943 286.55 129.981C286.496 130.019 286.435 130.046 286.37 130.06L286.27 130.07Z" fill="#093269"/>
<path d="M285.93 123.6C285.843 123.595 285.757 123.572 285.68 123.53C285.566 123.461 285.483 123.351 285.449 123.222C285.416 123.093 285.434 122.956 285.5 122.84C285.6 122.68 287.81 118.97 289.58 117.84C289.694 117.771 289.831 117.75 289.96 117.782C290.09 117.814 290.201 117.896 290.27 118.01C290.339 118.124 290.36 118.261 290.328 118.39C290.296 118.52 290.214 118.631 290.1 118.7C288.81 119.49 286.96 122.3 286.36 123.31C286.322 123.393 286.261 123.464 286.186 123.515C286.11 123.566 286.021 123.596 285.93 123.6Z" fill="#093269"/>
<path d="M287.89 134H287.76C287.633 133.965 287.524 133.881 287.457 133.768C287.39 133.654 287.369 133.518 287.4 133.39C288.318 130.045 289.839 126.897 291.89 124.1C291.974 123.996 292.096 123.93 292.229 123.915C292.361 123.9 292.495 123.938 292.6 124.02C292.651 124.061 292.694 124.111 292.726 124.169C292.757 124.227 292.777 124.29 292.783 124.355C292.79 124.42 292.783 124.486 292.764 124.549C292.744 124.612 292.712 124.67 292.67 124.72C290.719 127.415 289.263 130.435 288.37 133.64C288.34 133.744 288.277 133.835 288.19 133.9C288.103 133.965 287.998 134 287.89 134Z" fill="#093269"/>
<path d="M282.42 124.91C282.358 124.925 282.292 124.925 282.23 124.91C281.4 124.57 278.99 123.78 277.83 124.25C277.77 124.276 277.705 124.29 277.639 124.29C277.574 124.291 277.508 124.278 277.448 124.253C277.387 124.227 277.332 124.19 277.286 124.143C277.24 124.097 277.204 124.041 277.18 123.98C277.133 123.858 277.135 123.722 277.185 123.601C277.235 123.48 277.33 123.383 277.45 123.33C279.19 122.62 282.26 123.84 282.61 123.99C282.671 124.014 282.727 124.05 282.773 124.096C282.82 124.142 282.857 124.197 282.883 124.258C282.908 124.318 282.921 124.383 282.92 124.449C282.92 124.515 282.906 124.58 282.88 124.64C282.836 124.723 282.769 124.792 282.688 124.84C282.607 124.888 282.514 124.912 282.42 124.91Z" fill="#093269"/>
<path d="M285.25 150.56C285.131 150.56 285.015 150.517 284.924 150.441C284.833 150.364 284.771 150.257 284.75 150.14C284.58 148.94 283.85 145.65 282.59 144.89C282.437 144.773 282.26 144.69 282.072 144.647C281.884 144.604 281.689 144.601 281.5 144.64C281.24 144.748 281.033 144.952 280.92 145.21C280.896 145.271 280.86 145.327 280.814 145.374C280.768 145.421 280.713 145.459 280.653 145.485C280.593 145.511 280.528 145.525 280.462 145.525C280.396 145.526 280.331 145.514 280.27 145.49C280.209 145.466 280.153 145.43 280.106 145.384C280.059 145.338 280.021 145.283 279.995 145.223C279.969 145.163 279.956 145.098 279.955 145.032C279.954 144.966 279.966 144.901 279.99 144.84C280.101 144.579 280.263 144.344 280.468 144.148C280.672 143.952 280.915 143.799 281.18 143.7C281.504 143.606 281.845 143.587 282.178 143.644C282.511 143.701 282.826 143.833 283.1 144.03C285 145.18 285.67 149.5 285.75 150.03C285.767 150.162 285.732 150.296 285.651 150.403C285.571 150.509 285.452 150.58 285.32 150.6L285.25 150.56Z" fill="#093269"/>
<path d="M285.14 149.94C285.009 149.94 284.883 149.889 284.79 149.797C284.696 149.706 284.643 149.581 284.64 149.45C284.57 144.14 285.52 143.98 285.84 143.93C285.954 143.91 286.071 143.915 286.183 143.944C286.296 143.974 286.4 144.027 286.49 144.1C287.26 144.67 287.6 146.81 287.68 147.46C287.689 147.526 287.684 147.592 287.667 147.656C287.65 147.72 287.62 147.78 287.58 147.833C287.539 147.885 287.489 147.929 287.431 147.962C287.374 147.995 287.311 148.016 287.245 148.025C287.179 148.034 287.113 148.029 287.049 148.012C286.985 147.995 286.925 147.965 286.872 147.925C286.82 147.884 286.776 147.834 286.743 147.776C286.71 147.719 286.689 147.656 286.68 147.59C286.589 146.714 286.363 145.857 286.01 145.05C285.691 146.49 285.563 147.966 285.63 149.44C285.631 149.505 285.62 149.57 285.596 149.631C285.572 149.691 285.536 149.746 285.49 149.793C285.444 149.84 285.39 149.877 285.33 149.902C285.27 149.927 285.205 149.94 285.14 149.94Z" fill="#093269"/>
<path d="M141.81 89.21H136.74V95.03H141.81V89.21Z" fill="white"/>
<path d="M160.39 93.53H155.32V99.35H160.39V93.53Z" fill="white"/>
<path d="M290.09 92.12H285.02V97.94H290.09V92.12Z" fill="#093269"/>
<path d="M290.09 98.44H285C284.867 98.44 284.74 98.3873 284.646 98.2935C284.553 98.1998 284.5 98.0726 284.5 97.94V92.12C284.5 91.9874 284.553 91.8602 284.646 91.7664C284.74 91.6727 284.867 91.62 285 91.62H290.07C290.202 91.6226 290.327 91.6761 290.421 91.7693C290.514 91.8625 290.567 91.9882 290.57 92.12V97.94C290.57 98.0692 290.52 98.1934 290.431 98.2867C290.341 98.3799 290.219 98.4348 290.09 98.44ZM285.52 97.44H289.59V92.62H285.52V97.44Z" fill="#093269"/>
<path d="M277.11 99.09H272.04V104.91H277.11V99.09Z" fill="#093269"/>
<path d="M277.1 105.41H272C271.867 105.41 271.74 105.357 271.646 105.264C271.553 105.17 271.5 105.043 271.5 104.91V99.09C271.5 98.9574 271.553 98.8302 271.646 98.7364C271.74 98.6427 271.867 98.59 272 98.59H277.06C277.193 98.59 277.32 98.6427 277.414 98.7364C277.507 98.8302 277.56 98.9574 277.56 99.09V104.91C277.56 105.036 277.513 105.157 277.428 105.25C277.343 105.343 277.226 105.4 277.1 105.41ZM272.54 104.41H276.6V99.59H272.54V104.41Z" fill="#093269"/>
<path d="M289.72 104.37H284.65V110.19H289.72V104.37Z" fill="#093269"/>
<path d="M289.72 110.69H284.65C284.518 110.687 284.393 110.634 284.299 110.541C284.206 110.447 284.153 110.322 284.15 110.19V104.37C284.15 104.237 284.203 104.11 284.296 104.016C284.39 103.923 284.517 103.87 284.65 103.87H289.72C289.853 103.87 289.98 103.923 290.074 104.016C290.167 104.11 290.22 104.237 290.22 104.37V110.19C290.22 110.323 290.167 110.45 290.074 110.544C289.98 110.637 289.853 110.69 289.72 110.69ZM285.15 109.69H289.22V104.87H285.15V109.69Z" fill="#093269"/>
<path d="M147.75 105.08H142.68V110.9H147.75V105.08Z" fill="white"/>
<path d="M189.69 144.23C189.3 145.08 188.78 146.42 186.9 146.42C185.02 146.42 140.02 146.73 138.66 146.42C138.241 146.295 137.858 146.069 137.546 145.763C137.234 145.456 137.002 145.077 136.87 144.66C136.87 144.66 136.67 141.78 136.76 140.66C136.76 140.66 136.76 140.55 136.76 140.51C136.796 140.227 136.897 139.956 137.054 139.718C137.212 139.481 137.423 139.283 137.67 139.14C137.56 138.339 137.625 137.524 137.86 136.75C138.25 135.84 143.05 131.83 143.05 131.83C143.05 131.83 142.05 131.56 141.82 131.09C141.59 130.62 162.03 129.5 165.66 130.23C169.29 130.96 178.16 137.28 178.16 137.28C178.16 137.28 187.4 137.39 188.37 138.28C189.34 139.17 190.08 143.38 189.69 144.23Z" fill="#1264D1"/>
<path d="M147.02 149.71C149.041 149.71 150.68 148.071 150.68 146.05C150.68 144.029 149.041 142.39 147.02 142.39C144.999 142.39 143.36 144.029 143.36 146.05C143.36 148.071 144.999 149.71 147.02 149.71Z" fill="#093269"/>
<path d="M147.02 147.86C148.02 147.86 148.83 147.05 148.83 146.05C148.83 145.05 148.02 144.24 147.02 144.24C146.02 144.24 145.21 145.05 145.21 146.05C145.21 147.05 146.02 147.86 147.02 147.86Z" fill="white"/>
<path d="M147 148.36C146.541 148.36 146.092 148.224 145.71 147.968C145.328 147.713 145.031 147.35 144.856 146.925C144.68 146.501 144.635 146.034 144.725 145.584C144.816 145.133 145.038 144.72 145.363 144.396C145.689 144.072 146.103 143.852 146.554 143.763C147.004 143.675 147.471 143.722 147.895 143.899C148.319 144.077 148.68 144.375 148.934 144.758C149.188 145.141 149.322 145.591 149.32 146.05C149.317 146.664 149.072 147.251 148.637 147.684C148.202 148.117 147.614 148.36 147 148.36ZM147 144.73C146.739 144.73 146.484 144.807 146.267 144.952C146.05 145.097 145.88 145.304 145.78 145.545C145.681 145.786 145.654 146.051 145.705 146.307C145.756 146.564 145.882 146.799 146.067 146.983C146.251 147.168 146.486 147.294 146.742 147.345C146.999 147.396 147.264 147.369 147.505 147.269C147.746 147.17 147.952 147 148.098 146.783C148.243 146.566 148.32 146.311 148.32 146.05C148.32 145.7 148.181 145.364 147.933 145.117C147.686 144.869 147.35 144.73 147 144.73Z" fill="#093269"/>
<path d="M178.99 149.71C181.011 149.71 182.65 148.071 182.65 146.05C182.65 144.029 181.011 142.39 178.99 142.39C176.969 142.39 175.33 144.029 175.33 146.05C175.33 148.071 176.969 149.71 178.99 149.71Z" fill="#093269"/>
<path d="M178.99 147.86C179.99 147.86 180.8 147.05 180.8 146.05C180.8 145.05 179.99 144.24 178.99 144.24C177.99 144.24 177.18 145.05 177.18 146.05C177.18 147.05 177.99 147.86 178.99 147.86Z" fill="white"/>
<path d="M179 148.36C178.54 148.362 178.09 148.227 177.707 147.973C177.324 147.719 177.025 147.357 176.849 146.932C176.672 146.508 176.625 146.041 176.714 145.59C176.803 145.139 177.024 144.725 177.35 144.399C177.675 144.074 178.089 143.853 178.54 143.764C178.991 143.675 179.458 143.722 179.882 143.898C180.307 144.075 180.669 144.374 180.923 144.757C181.177 145.14 181.312 145.59 181.31 146.05C181.307 146.662 181.063 147.248 180.631 147.68C180.198 148.113 179.612 148.357 179 148.36ZM179 144.73C178.739 144.728 178.482 144.804 178.264 144.948C178.046 145.091 177.875 145.297 177.773 145.538C177.672 145.779 177.644 146.045 177.694 146.301C177.744 146.558 177.869 146.794 178.053 146.98C178.237 147.165 178.472 147.292 178.729 147.344C178.985 147.396 179.251 147.37 179.493 147.27C179.735 147.171 179.941 147.002 180.087 146.784C180.232 146.567 180.31 146.311 180.31 146.05C180.31 145.702 180.172 145.367 179.927 145.12C179.682 144.873 179.348 144.733 179 144.73Z" fill="#093269"/>
<path d="M143.36 132.4C143.2 132.5 139.24 136.19 139.24 136.19C139.975 136.136 140.695 135.957 141.37 135.66C142.492 134.929 143.502 134.04 144.37 133.02L143.36 132.4Z" fill="#093269"/>
<path d="M139.24 136.69C139.141 136.689 139.044 136.658 138.963 136.602C138.881 136.545 138.818 136.466 138.782 136.374C138.746 136.282 138.737 136.181 138.758 136.084C138.779 135.987 138.829 135.899 138.9 135.83C142.9 132.1 143.05 132.01 143.1 131.97C143.179 131.923 143.269 131.899 143.36 131.899C143.451 131.899 143.541 131.923 143.62 131.97L144.62 132.58C144.68 132.619 144.732 132.671 144.772 132.731C144.811 132.791 144.838 132.859 144.85 132.93C144.862 133.003 144.857 133.078 144.836 133.148C144.815 133.219 144.779 133.285 144.73 133.34C143.822 134.42 142.752 135.355 141.56 136.11C140.832 136.431 140.054 136.624 139.26 136.68L139.24 136.69ZM143.41 133.02C142.95 133.43 141.93 134.38 140.94 135.3L141.17 135.2C142.074 134.633 142.89 133.936 143.59 133.13L143.41 133.02Z" fill="#093269"/>
<path d="M149.94 131.88C148.732 132.008 147.552 132.321 146.44 132.81C146.13 134.3 147.06 137.81 150.07 137.81L149.94 131.88Z" fill="#093269"/>
<path d="M150.07 138.35C149.49 138.347 148.919 138.212 148.399 137.956C147.88 137.699 147.425 137.328 147.07 136.87C146.625 136.28 146.302 135.608 146.118 134.892C145.935 134.176 145.894 133.431 146 132.7C146.015 132.634 146.043 132.571 146.082 132.516C146.122 132.461 146.172 132.415 146.23 132.38C147.405 131.86 148.653 131.523 149.93 131.38C150.071 131.368 150.211 131.411 150.32 131.5C150.373 131.546 150.415 131.603 150.444 131.667C150.474 131.731 150.489 131.8 150.49 131.87L150.62 137.87C150.622 137.936 150.61 138.002 150.586 138.064C150.562 138.126 150.526 138.182 150.48 138.23C150.424 138.277 150.358 138.313 150.288 138.333C150.217 138.354 150.143 138.36 150.07 138.35ZM146.9 133.13C146.84 134.249 147.177 135.354 147.85 136.25C148.271 136.799 148.88 137.172 149.56 137.3L149.45 132.46C148.576 132.578 147.719 132.803 146.9 133.13Z" fill="#093269"/>
<path d="M141 139.14C140.71 139.655 140.298 140.092 139.8 140.41C138.995 140.643 138.155 140.728 137.32 140.66C137.32 140.66 137.32 140.55 137.32 140.51C137.356 140.227 137.457 139.956 137.614 139.718C137.772 139.481 137.983 139.283 138.23 139.14H141Z" fill="white"/>
<path d="M187.52 144.48H137.92C137.854 144.48 137.79 144.454 137.743 144.407C137.696 144.36 137.67 144.296 137.67 144.23C137.67 144.164 137.696 144.1 137.743 144.053C137.79 144.006 137.854 143.98 137.92 143.98H187.52C187.586 143.982 187.648 144.01 187.694 144.056C187.74 144.102 187.768 144.164 187.77 144.23C187.77 144.296 187.744 144.36 187.697 144.407C187.65 144.454 187.586 144.48 187.52 144.48Z" fill="#093269"/>
<path d="M151.43 138V131.92C151.43 131.92 157.65 131.8 159.21 131.92L159 138H151.43Z" fill="#093269"/>
<path d="M159 138.51H151.41C151.277 138.51 151.15 138.457 151.056 138.364C150.963 138.27 150.91 138.143 150.91 138.01V131.93C150.912 131.8 150.965 131.676 151.056 131.583C151.147 131.49 151.27 131.435 151.4 131.43C151.65 131.43 157.67 131.31 159.24 131.43C159.366 131.44 159.484 131.499 159.568 131.594C159.652 131.689 159.696 131.813 159.69 131.94L159.5 138.04C159.492 138.167 159.436 138.287 159.343 138.374C159.25 138.462 159.128 138.51 159 138.51ZM151.91 137.51H158.52L158.68 132.38C157.02 132.3 153.26 132.38 151.91 132.38V137.51Z" fill="#093269"/>
<path d="M160.77 138V131.87C160.77 131.87 165.98 131.72 167.19 132.11C168.4 132.5 175.45 138.02 175.33 138C175.21 137.98 160.77 138 160.77 138Z" fill="#093269"/>
<path d="M175.33 138.51H160.77C160.638 138.507 160.513 138.454 160.419 138.361C160.326 138.267 160.273 138.142 160.27 138.01V131.88C160.27 131.749 160.321 131.623 160.413 131.53C160.505 131.436 160.629 131.383 160.76 131.38C161.3 131.38 166.09 131.24 167.34 131.64C168.998 132.527 170.563 133.579 172.01 134.78C175.91 137.71 175.9 137.78 175.82 138.12C175.793 138.23 175.731 138.328 175.642 138.399C175.553 138.47 175.443 138.509 175.33 138.51ZM161.27 132.37V137.51H173.92C171.734 135.728 169.436 134.088 167.04 132.6C165.128 132.349 163.196 132.272 161.27 132.37Z" fill="#093269"/>
<path d="M188.75 141.28H185.28C185.468 141.731 185.785 142.117 186.19 142.39C186.87 142.84 189.01 142.55 189.01 142.55L188.75 141.28Z" fill="white"/>
<path d="M179 126.61H168.05C167.917 126.61 167.79 126.557 167.696 126.464C167.603 126.37 167.55 126.243 167.55 126.11V119.37C167.55 119.237 167.603 119.11 167.696 119.016C167.79 118.923 167.917 118.87 168.05 118.87H179C179.133 118.87 179.26 118.923 179.354 119.016C179.447 119.11 179.5 119.237 179.5 119.37V126.11C179.497 126.242 179.444 126.367 179.351 126.461C179.258 126.554 179.132 126.607 179 126.61ZM168.56 125.61H178.5V119.87H168.56V125.61Z" fill="#D5E6FB"/>
</svg>
